<svg width="75" height="54" viewBox="0 0 75 54" fill="none" xmlns="http://www.w3.org/2000/svg">
<path d="M74.4612 20.5316V20.4674C74.4662 20.391 74.4556 20.3143 74.4302 20.2424V20.146C74.4302 20.0818 74.3992 20.0175 74.3992 19.9533V19.889C74.3681 19.7926 74.3681 19.7283 74.3371 19.632H74.3061L69.9625 8.38615C69.5989 7.42481 68.9625 6.60014 68.1373 6.02082C67.312 5.44151 66.3367 5.13474 65.3397 5.14094H54.6049V2.57047C54.6049 1.88874 54.3434 1.23493 53.8779 0.752873C53.4124 0.270817 52.7811 0 52.1229 0H4.96408C3.64753 0 2.38489 0.541633 1.45395 1.50575C0.523 2.46986 0 3.77748 0 5.14094V41.1275C0 42.491 0.523 43.7986 1.45395 44.7627C2.38489 45.7268 3.64753 46.2684 4.96408 46.2684H8.9974C9.54419 48.4801 10.7862 50.4404 12.5276 51.8403C14.2691 53.2402 16.4108 54 18.6153 54C20.8198 54 22.9616 53.2402 24.703 51.8403C26.4444 50.4404 27.6864 48.4801 28.2332 46.2684H46.228C46.7748 48.4801 48.0168 50.4404 49.7582 51.8403C51.4997 53.2402 53.6414 54 55.8459 54C58.0504 54 60.1922 53.2402 61.9336 51.8403C63.675 50.4404 64.917 48.4801 65.4638 46.2684H69.4971C70.8137 46.2684 72.0763 45.7268 73.0073 44.7627C73.9382 43.7986 74.4612 42.491 74.4612 41.1275V20.5637V20.5316ZM54.6049 10.2819H65.3397L68.3182 17.9933H54.6049V10.2819ZM4.96408 5.14094H49.6408V25.7047H4.96408V5.14094ZM18.6153 48.8389C17.6335 48.8389 16.6737 48.5374 15.8574 47.9725C15.0411 47.4076 14.4048 46.6047 14.0291 45.6653C13.6534 44.7259 13.5551 43.6923 13.7466 42.695C13.9381 41.6978 14.4109 40.7817 15.1052 40.0628C15.7994 39.3438 16.6839 38.8542 17.6469 38.6558C18.6098 38.4574 19.6079 38.5593 20.515 38.9484C21.422 39.3375 22.1973 39.9964 22.7428 40.8418C23.2882 41.6872 23.5794 42.6812 23.5794 43.698C23.5794 45.0614 23.0564 46.369 22.1254 47.3332C21.1945 48.2973 19.9319 48.8389 18.6153 48.8389ZM55.8459 48.8389C54.8641 48.8389 53.9044 48.5374 53.088 47.9725C52.2717 47.4076 51.6354 46.6047 51.2597 45.6653C50.884 44.7259 50.7857 43.6923 50.9772 42.695C51.1688 41.6978 51.6415 40.7817 52.3358 40.0628C53.03 39.3438 53.9145 38.8542 54.8775 38.6558C55.8404 38.4574 56.8385 38.5593 57.7456 38.9484C58.6526 39.3375 59.4279 39.9964 59.9734 40.8418C60.5189 41.6872 60.81 42.6812 60.81 43.698C60.81 45.0614 60.287 46.369 59.356 47.3332C58.4251 48.2973 57.1625 48.8389 55.8459 48.8389Z" fill="#B6E5EE"/>
</svg>
