<svg width="57" height="54" viewBox="0 0 57 54" fill="none" xmlns="http://www.w3.org/2000/svg">
<path d="M0 6.39246C0 4.69708 0.673489 3.07113 1.87231 1.87231C3.07113 0.673489 4.69707 0 6.39246 0H34.8034C36.4988 0 38.1247 0.673489 39.3236 1.87231C40.5224 3.07113 41.1959 4.69708 41.1959 6.39246V8.52328H45.5996C48.0713 8.52328 50.3215 9.94667 51.3783 12.1798L56.2082 22.3708C56.6116 23.2259 56.8219 24.1607 56.8219 25.1067V40.4856C56.8219 42.181 56.1484 43.8069 54.9496 45.0057C53.7507 46.2046 52.1248 46.8781 50.4294 46.8781H45.341C45.0087 48.8675 43.9816 50.6747 42.4423 51.9782C40.903 53.2817 38.9513 53.997 36.9342 53.997C34.9172 53.997 32.9655 53.2817 31.4262 51.9782C29.8869 50.6747 28.8598 48.8675 28.5274 46.8781H22.6151C22.283 48.8706 21.254 50.6804 19.7115 51.9848C18.1691 53.2892 16.2135 54.0034 14.1934 54C12.1734 53.9966 10.2202 53.2758 8.68216 51.9662C7.14413 50.6566 6.12122 48.8433 5.79583 46.8496C4.21077 46.7011 2.73819 45.9664 1.66624 44.7893C0.594296 43.6123 0.000126345 42.0776 0 40.4856V6.39246ZM52.5602 35.5137H49.0089C48.4437 35.5137 47.9018 35.7382 47.5021 36.1378C47.1025 36.5374 46.878 37.0794 46.878 37.6445C46.878 38.2096 47.1025 38.7516 47.5021 39.1512C47.9018 39.5508 48.4437 39.7753 49.0089 39.7753H52.5602V35.5137ZM51.6596 22.7288L47.5315 14.0038C47.3588 13.639 47.0861 13.3309 46.745 13.1151C46.404 12.8993 46.0088 12.7848 45.6052 12.7849H41.1959V22.7288H51.6596ZM14.2055 49.7191C15.3357 49.7191 16.4197 49.2701 17.2189 48.4709C18.0181 47.6717 18.4671 46.5878 18.4671 45.4575C18.4671 44.3272 18.0181 43.2433 17.2189 42.4441C16.4197 41.6449 15.3357 41.1959 14.2055 41.1959C13.0752 41.1959 11.9912 41.6449 11.192 42.4441C10.3928 43.2433 9.94383 44.3272 9.94383 45.4575C9.94383 46.5878 10.3928 47.6717 11.192 48.4709C11.9912 49.2701 13.0752 49.7191 14.2055 49.7191ZM41.1959 45.4575C41.1959 44.3272 40.7469 43.2433 39.9477 42.4441C39.1484 41.6449 38.0645 41.1959 36.9342 41.1959C35.804 41.1959 34.72 41.6449 33.9208 42.4441C33.1216 43.2433 32.6726 44.3272 32.6726 45.4575C32.6726 46.5878 33.1216 47.6717 33.9208 48.4709C34.72 49.2701 35.804 49.7191 36.9342 49.7191C38.0645 49.7191 39.1484 49.2701 39.9477 48.4709C40.7469 47.6717 41.1959 46.5878 41.1959 45.4575Z" fill="#B6E5EE"/>
</svg>
