<svg width="68" height="54" viewBox="0 0 68 54" fill="none" xmlns="http://www.w3.org/2000/svg">
<path d="M5.07857 0C2.27478 0 0 2.26758 0 5.0625V38.8125C0 41.6074 2.27478 43.875 5.07857 43.875H6.77143C6.77143 49.4648 11.321 54 16.9286 54C22.5362 54 27.0857 49.4648 27.0857 43.875H40.6286C40.6286 49.4648 45.1781 54 50.7857 54C56.3933 54 60.9429 49.4648 60.9429 43.875H64.3286C66.2013 43.875 67.7143 42.3668 67.7143 40.5C67.7143 38.6332 66.2013 37.125 64.3286 37.125V25.0277C64.3286 23.2348 63.6197 21.5156 62.35 20.25L54.1714 12.0973C52.9018 10.8316 51.1772 10.125 49.3785 10.125H44.0143V5.0625C44.0143 2.26758 41.7395 0 38.9357 0H5.07857ZM44.0143 16.875H49.3785L57.5571 25.0277V27H44.0143V16.875ZM22.0071 43.875C22.0071 46.6699 19.7324 48.9375 16.9286 48.9375C14.1248 48.9375 11.85 46.6699 11.85 43.875C11.85 41.0801 14.1248 38.8125 16.9286 38.8125C19.7324 38.8125 22.0071 41.0801 22.0071 43.875ZM50.7857 48.9375C47.9819 48.9375 45.7071 46.6699 45.7071 43.875C45.7071 41.0801 47.9819 38.8125 50.7857 38.8125C53.5895 38.8125 55.8643 41.0801 55.8643 43.875C55.8643 46.6699 53.5895 48.9375 50.7857 48.9375Z" fill="#B6E5EE"/>
</svg>
