<svg width="74" height="54" viewBox="0 0 74 54" fill="none" xmlns="http://www.w3.org/2000/svg">
<path d="M7.38947 0C3.31372 0 0 3.45938 0 7.71429V44.3571C0 49.6848 4.13349 54 9.23684 54C12.2619 54 14.9406 52.4813 16.6263 50.1429C18.312 52.4813 20.9907 54 24.0158 54C29.1191 54 33.2526 49.6848 33.2526 44.3571C33.2526 43.6942 33.1833 43.0554 33.0679 42.4286H51.911C51.7956 43.0554 51.7263 43.6942 51.7263 44.3571C51.7263 49.6848 55.8598 54 60.9632 54C66.0665 54 70.2 49.6848 70.2 44.3571C70.2 43.6942 70.1307 43.0554 70.0153 42.4286H70.2C72.2436 42.4286 73.8947 40.7049 73.8947 38.5714V27.6871C73.8947 26.5781 73.5253 25.4933 72.8556 24.6375L66.0665 15.983C64.8426 14.4161 63.0068 13.5121 61.0671 13.5121H55.421V7.71429C55.421 3.45938 52.1073 0 48.0316 0H7.38947ZM67.5444 27H55.421V19.2857H61.0555C61.3326 19.2857 61.5982 19.4183 61.7714 19.6353L67.5444 27ZM60.9632 48.2143C58.9195 48.2143 57.2684 46.4906 57.2684 44.3571C57.2684 42.2237 58.9195 40.5 60.9632 40.5C63.0068 40.5 64.6579 42.2237 64.6579 44.3571C64.6579 46.4906 63.0068 48.2143 60.9632 48.2143ZM27.7105 44.3571C27.7105 46.4906 26.0594 48.2143 24.0158 48.2143C21.9721 48.2143 20.3211 46.4906 20.3211 44.3571C20.3211 42.2237 21.9721 40.5 24.0158 40.5C26.0594 40.5 27.7105 42.2237 27.7105 44.3571ZM9.23684 48.2143C7.19319 48.2143 5.5421 46.4906 5.5421 44.3571C5.5421 42.2237 7.19319 40.5 9.23684 40.5C11.2805 40.5 12.9316 42.2237 12.9316 44.3571C12.9316 46.4906 11.2805 48.2143 9.23684 48.2143Z" fill="#B6E5EE"/>
</svg>
