<svg width="97" height="54" viewBox="0 0 97 54" fill="none" xmlns="http://www.w3.org/2000/svg">
<path d="M5.44939 40.3495C3.8376 41.7309 2.7303 43.6717 2.40128 45.8757H1.09657C0.493448 45.8757 0 45.3822 0 44.7791V41.4459C0 40.8427 0.49329 40.3496 1.09657 40.3496L5.44939 40.3495ZM18.0146 45.8755C18.1023 46.303 18.1462 46.7305 18.1462 47.1802C18.1462 50.941 15.0981 54 11.3263 54C7.56552 54 4.50636 50.941 4.50636 47.1802C4.50636 46.7305 4.55008 46.303 4.63781 45.8755C5.24078 42.7285 8.0039 40.3493 11.3261 40.3493C14.6483 40.3493 17.4225 42.7285 18.0146 45.8755ZM14.7362 47.1802C14.7362 46.7198 14.6486 46.27 14.4732 45.8755C13.9688 44.6365 12.7517 43.7701 11.3264 43.7701C9.901 43.7701 8.68403 44.6365 8.17953 45.8755C8.00406 46.27 7.91648 46.7198 7.91648 47.1802C7.91648 49.0551 9.44053 50.5902 11.3264 50.5902C13.2123 50.5902 14.7362 49.0551 14.7362 47.1802ZM2.69937 35.9747V3.28939C2.69937 1.47277 4.17214 0 5.98876 0H58.3989C60.2157 0 61.6883 1.47277 61.6883 3.28939V35.9747C61.6883 36.5775 61.195 37.071 60.5919 37.071H3.79594C3.19282 37.071 2.69937 36.5775 2.69937 35.9747ZM53.728 32.2845C53.728 32.8051 54.1499 33.227 54.6705 33.227H54.6999C55.2203 33.227 55.6423 32.8051 55.6423 32.2845V5.16409C55.6423 4.64365 55.2203 4.22169 54.6999 4.22169H54.6705C54.1499 4.22169 53.728 4.64365 53.728 5.16409V32.2845ZM44.8654 32.2845C44.8654 32.8051 45.2873 33.227 45.8077 33.227H45.837C46.3576 33.227 46.7794 32.8051 46.7794 32.2845V5.16409C46.7794 4.64365 46.3576 4.22169 45.837 4.22169H45.8077C45.2873 4.22169 44.8654 4.64365 44.8654 5.16409V32.2845ZM36.0028 32.2845C36.0028 32.8051 36.4248 33.227 36.9452 33.227H36.9745C37.495 33.227 37.9169 32.8051 37.9169 32.2845V5.16409C37.9169 4.64365 37.495 4.22169 36.9745 4.22169H36.9452C36.4248 4.22169 36.0028 4.64365 36.0028 5.16409V32.2845ZM27.1404 32.2845C27.1404 32.8051 27.5624 33.227 28.0828 33.227H28.1122C28.6326 33.227 29.0546 32.8051 29.0546 32.2845V5.16409C29.0546 4.64365 28.6326 4.22169 28.1122 4.22169H28.0828C27.5624 4.22169 27.1404 4.64365 27.1404 5.16409V32.2845ZM18.2779 32.2845C18.2779 32.8051 18.6998 33.227 19.2203 33.227H19.2497C19.7701 33.227 20.1919 32.8051 20.1919 32.2845V5.16409C20.1919 4.64365 19.7701 4.22169 19.2497 4.22169H19.2203C18.6998 4.22169 18.2779 4.64365 18.2779 5.16409V32.2845ZM9.41544 32.2845C9.41544 32.8051 9.83741 33.227 10.3578 33.227H10.3872C10.9078 33.227 11.3296 32.8051 11.3296 32.2845V5.16409C11.3296 4.64365 10.9078 4.22169 10.3872 4.22169H10.3578C9.83741 4.22169 9.41544 4.64365 9.41544 5.16409V32.2845ZM34.8451 45.8755C34.9329 46.303 34.9768 46.7305 34.9768 47.1802C34.9768 50.941 31.9286 54 28.1569 54C24.3959 54 21.3369 50.941 21.3369 47.1802C21.3369 46.7305 21.3808 46.303 21.4684 45.8755C22.0715 42.7285 24.8346 40.3493 28.1569 40.3493C31.4791 40.3493 34.2531 42.7285 34.8451 45.8755ZM31.5668 47.1802C31.5668 46.7198 31.4791 46.27 31.3146 45.8755C30.7993 44.6365 29.5821 43.7701 28.1569 43.7701C26.7316 43.7701 25.5143 44.6365 24.9991 45.8755C24.8346 46.27 24.7469 46.7198 24.7469 47.1802C24.7469 49.0551 26.271 50.5902 28.157 50.5902C30.0427 50.5902 31.5668 49.0551 31.5668 47.1802ZM22.2798 40.3495H17.2035C18.3218 41.3141 19.2099 42.5532 19.7472 43.9567C20.2734 42.5533 21.1615 41.3141 22.2798 40.3495ZM96.5751 41.4457V44.779C96.5751 45.3821 96.0817 45.8755 95.4787 45.8755H86.5976C85.9616 41.5224 82.2227 38.1565 77.6944 38.1565C73.1661 38.1565 69.4162 41.5224 68.7803 45.8755H37.0818C36.753 43.6715 35.6455 41.7307 34.0337 40.3493H64.8221V8.99095C64.8221 7.78471 65.7978 6.79797 67.0149 6.79797H77.3655C80.282 6.79797 83.0013 8.24534 84.6347 10.6575L91.3121 20.5475C92.2879 21.9948 92.8142 23.7052 92.8142 25.4485V40.3493H95.4785C96.0817 40.3495 96.5751 40.8426 96.5751 41.4457ZM85.4571 20.7996L80.1174 13.2122C79.9091 12.9272 79.5803 12.7517 79.2184 12.7517H70.8965C70.2936 12.7517 69.8 13.245 69.8 13.8483V21.4247C69.8 22.0387 70.2936 22.5211 70.8965 22.5211H84.5581C85.4464 22.5211 85.9615 21.5233 85.4571 20.7996ZM84.5141 47.1802C84.5141 50.941 81.4551 54 77.6942 54C73.9224 54 70.8743 50.941 70.8743 47.1802C70.8743 43.4085 73.9224 40.3495 77.6942 40.3495C81.4553 40.3495 84.5141 43.4083 84.5141 47.1802ZM81.1043 47.1802C81.1043 45.2944 79.5803 43.7703 77.6944 43.7703C75.8085 43.7703 74.2844 45.2944 74.2844 47.1802C74.2844 49.0551 75.8085 50.5902 77.6944 50.5902C79.5803 50.5902 81.1043 49.0551 81.1043 47.1802Z" fill="#B6E5EE"/>
</svg>
