<svg width="79" height="54" viewBox="0 0 79 54" fill="none" xmlns="http://www.w3.org/2000/svg">
<path d="M76.8857 30.8571H74.9143V23.1429C74.9143 21.013 73.1486 19.2857 70.9714 19.2857H65.0572L51.6539 2.89527C50.9149 1.99195 49.9778 1.26274 48.9118 0.761584C47.8458 0.260425 46.6783 0.000144654 45.4956 0H31.5429C29.3657 0 27.6 1.72728 27.6 3.85714V19.2857H7.88572C5.70852 19.2857 3.94286 21.013 3.94286 23.1429V30.8571H1.97143C0.882214 30.8571 0 31.7202 0 32.7857V36.6429C0 37.7084 0.882214 38.5714 1.97143 38.5714H8.08409C7.99045 39.2067 7.88572 39.8395 7.88572 40.5C7.88572 47.9563 14.0637 54 21.6857 54C29.3078 54 35.4857 47.9563 35.4857 40.5C35.4857 39.8395 35.381 39.2067 35.2873 38.5714H43.571C43.4774 39.2067 43.3727 39.8395 43.3727 40.5C43.3727 47.9563 49.5506 54 57.1727 54C64.7947 54 70.9727 47.9563 70.9727 40.5C70.9727 39.8395 70.8679 39.2067 70.7743 38.5714H76.8857C77.9749 38.5714 78.8572 37.7084 78.8572 36.6429V32.7857C78.8572 31.7202 77.9749 30.8571 76.8857 30.8571ZM35.4857 7.71429H45.4956L54.9585 19.2857H35.4857V7.71429ZM21.6857 46.2857C18.4242 46.2857 15.7714 43.6906 15.7714 40.5C15.7714 37.3094 18.4242 34.7143 21.6857 34.7143C24.9472 34.7143 27.6 37.3094 27.6 40.5C27.6 43.6906 24.9472 46.2857 21.6857 46.2857ZM57.1714 46.2857C53.91 46.2857 51.2571 43.6906 51.2571 40.5C51.2571 37.3094 53.91 34.7143 57.1714 34.7143C60.4329 34.7143 63.0857 37.3094 63.0857 40.5C63.0857 43.6906 60.4329 46.2857 57.1714 46.2857Z" fill="#B6E5EE"/>
</svg>
