<svg width="100" height="100" viewBox="0 0 100 100" fill="none" xmlns="http://www.w3.org/2000/svg">
<path d="M87.5833 20.8333H79.1667V12.4166C79.1667 10.1666 77.3333 8.33325 75.0833 8.33325H74.9583C72.6667 8.33325 70.8333 10.1666 70.8333 12.4166V20.8333H62.4583C60.2083 20.8333 58.375 22.6666 58.3333 24.9166V25.0416C58.3333 27.3333 60.1667 29.1666 62.4583 29.1666H70.8333V37.5416C70.8333 39.7916 72.6667 41.6666 74.9583 41.6249H75.0833C77.3333 41.6249 79.1667 39.7916 79.1667 37.5416V29.1666H87.5833C89.8333 29.1666 91.6667 27.3333 91.6667 25.0833V24.9166C91.6667 22.6666 89.8333 20.8333 87.5833 20.8333ZM66.6667 37.5416V33.3333H62.4583C60.25 33.3333 58.1667 32.4583 56.5833 30.9166C55.0417 29.3333 54.1667 27.2499 54.1667 24.9166C54.1667 23.4166 54.5833 22.0416 55.2917 20.8333H20.8333C16.25 20.8333 12.5 24.5833 12.5 29.1666V79.1666C12.5 83.7499 16.25 87.4999 20.8333 87.4999H70.8333C75.4167 87.4999 79.1667 83.7499 79.1667 79.1666V44.6666C77.9167 45.3749 76.5 45.8333 74.9167 45.8333C72.7282 45.8114 70.6362 44.9295 69.0925 43.378C67.5489 41.8266 66.6775 39.7301 66.6667 37.5416ZM66.5 79.1666H25C24.6131 79.1666 24.2338 79.0589 23.9047 78.8554C23.5756 78.652 23.3096 78.361 23.1366 78.0149C22.9636 77.6689 22.8903 77.2815 22.9251 76.8962C22.9598 76.5108 23.1012 76.1428 23.3333 75.8333L31.5833 64.8749C32.4583 63.7083 34.1667 63.7916 35 64.9583L41.6667 74.9999L52.5417 60.4999C53.375 59.4166 55 59.3749 55.8333 60.4583L68.125 75.7916C69.2083 77.1666 68.25 79.1666 66.5 79.1666Z" fill="#242B50"/>
</svg>
