<svg width="16" height="16" viewBox="0 0 16 16" fill="none" xmlns="http://www.w3.org/2000/svg">
<path fill-rule="evenodd" clip-rule="evenodd" d="M12.0792 0.41223C9.62033 -0.13741 7.07045 -0.13741 4.61159 0.41223L4.34665 0.470845C3.655 0.625482 3.01976 0.96883 2.51149 1.46275C2.00323 1.95667 1.64183 2.58182 1.46746 3.26875C0.84418 5.72476 0.84418 8.29755 1.46746 10.7536C1.63375 11.4087 1.97031 12.0082 2.443 12.4913C2.9157 12.9745 3.50773 13.324 4.15908 13.5046L4.5225 15.6741C4.5341 15.743 4.56395 15.8075 4.60896 15.861C4.65397 15.9144 4.71247 15.9548 4.77839 15.9779C4.84431 16.0011 4.91522 16.0061 4.98376 15.9926C5.05229 15.979 5.11593 15.9473 5.16805 15.9008L7.30243 13.9915C8.90465 14.0892 10.5127 13.9611 12.0792 13.6109L12.3449 13.5522C13.0366 13.3976 13.6718 13.0543 14.1801 12.5603C14.6883 12.0664 15.0497 11.4413 15.2241 10.7543C15.8473 8.29832 15.8473 5.72555 15.2241 3.26954C15.0497 2.5825 14.6882 1.95728 14.1797 1.46335C13.6713 0.969425 13.0359 0.626134 12.3441 0.471627L12.0792 0.41223ZM5.27121 3.20545C5.12596 3.18431 4.97785 3.21354 4.85152 3.28829H4.84058C4.5475 3.46023 4.28334 3.67672 4.05826 3.9315C3.87069 4.14799 3.76909 4.36682 3.74252 4.57783C3.72689 4.70288 3.73783 4.82949 3.77456 4.94906L3.78863 4.95688C3.99965 5.57664 4.27475 6.17295 4.61081 6.7341C5.04413 7.52227 5.57738 8.25122 6.19733 8.90287L6.21609 8.92944L6.24579 8.95132L6.26376 8.97242L6.28565 8.99118C6.93958 9.613 7.67024 10.1488 8.45989 10.5855C9.36257 11.0771 9.91042 11.3092 10.2395 11.4061V11.4108C10.3356 11.4405 10.4231 11.4538 10.5114 11.4538C10.7916 11.4331 11.0569 11.3192 11.2648 11.1303C11.5188 10.9052 11.7338 10.6402 11.901 10.3456V10.3401C12.0581 10.0431 12.0049 9.76334 11.7783 9.57343C11.3231 9.17565 10.8308 8.82235 10.3082 8.51835C9.9581 8.32844 9.6025 8.44332 9.45869 8.63558L9.15155 9.02322C8.99368 9.21548 8.70764 9.18891 8.70764 9.18891L8.69982 9.1936C6.56544 8.64887 5.9957 6.48791 5.9957 6.48791C5.9957 6.48791 5.96912 6.19405 6.16685 6.044L6.55137 5.73451C6.73581 5.58445 6.86399 5.22964 6.66626 4.87951C6.36427 4.35647 6.01167 3.86435 5.61352 3.41021C5.52669 3.30333 5.4049 3.23054 5.26965 3.20467L5.27121 3.20545ZM8.87723 2.26604C8.77359 2.26604 8.6742 2.30721 8.60091 2.38049C8.52763 2.45378 8.48646 2.55317 8.48646 2.65681C8.48646 2.76045 8.52763 2.85984 8.60091 2.93313C8.6742 3.00641 8.77359 3.04758 8.87723 3.04758C9.86588 3.04758 10.6865 3.37035 11.336 3.98933C11.6697 4.32774 11.9299 4.72867 12.1003 5.16789C12.2715 5.6079 12.3496 6.0776 12.3293 6.54809C12.3271 6.59941 12.3351 6.65065 12.3528 6.69888C12.3704 6.74712 12.3974 6.7914 12.4321 6.82921C12.5023 6.90558 12.6 6.95092 12.7036 6.95527C12.8073 6.95963 12.9084 6.92263 12.9848 6.85242C13.0611 6.78222 13.1065 6.68455 13.1108 6.58092C13.1351 6.00217 13.039 5.4247 12.8287 4.88498C12.6175 4.34269 12.2972 3.84953 11.8877 3.436L11.8799 3.42819C11.0741 2.65837 10.0542 2.26604 8.87723 2.26604ZM8.85066 3.55089C8.74702 3.55089 8.64762 3.59206 8.57434 3.66534C8.50106 3.73863 8.45989 3.83802 8.45989 3.94166C8.45989 4.0453 8.50106 4.14469 8.57434 4.21798C8.64762 4.29126 8.74702 4.33243 8.85066 4.33243H8.86394C9.57671 4.38323 10.0956 4.62082 10.4591 5.0108C10.8319 5.41252 11.0249 5.91192 11.01 6.52933C11.0077 6.63297 11.0465 6.73331 11.1181 6.80828C11.1897 6.88325 11.2882 6.92671 11.3918 6.92909C11.4955 6.93148 11.5958 6.89259 11.6708 6.82099C11.7457 6.74939 11.7892 6.65095 11.7916 6.54731C11.8103 5.73685 11.5493 5.03738 11.0319 4.47936V4.4778C10.5028 3.9104 9.77678 3.61029 8.90302 3.55167L8.88973 3.55011L8.85066 3.55089ZM8.83581 4.85997C8.78351 4.85535 8.73082 4.86132 8.68088 4.87752C8.63095 4.89372 8.58479 4.91982 8.54516 4.95425C8.50553 4.98868 8.47324 5.03075 8.45023 5.07794C8.42722 5.12512 8.41395 5.17646 8.41122 5.22889C8.40849 5.28132 8.41635 5.33376 8.43433 5.38308C8.45232 5.43241 8.48005 5.4776 8.51589 5.51596C8.55173 5.55433 8.59493 5.58508 8.64291 5.60638C8.69089 5.62768 8.74268 5.6391 8.79517 5.63994C9.12185 5.65714 9.33052 5.75561 9.46182 5.88769C9.5939 6.02055 9.69237 6.23391 9.71035 6.56763C9.71133 6.62007 9.72285 6.67178 9.74423 6.71967C9.76561 6.76756 9.79642 6.81066 9.83481 6.8464C9.8732 6.88213 9.9184 6.90977 9.9677 6.92767C10.017 6.94557 10.0694 6.95336 10.1218 6.95058C10.1742 6.9478 10.2254 6.9345 10.2726 6.91148C10.3197 6.88846 10.3617 6.85619 10.3961 6.81659C10.4305 6.77699 10.4565 6.73087 10.4727 6.68098C10.4889 6.63109 10.4949 6.57846 10.4903 6.52621C10.4653 6.05728 10.3184 5.64307 10.0175 5.33827C9.71504 5.03347 9.30317 4.88498 8.83581 4.85997Z" fill="#1E1E1E"/>
</svg>
