<svg width="100" height="100" viewBox="0 0 100 100" fill="none" xmlns="http://www.w3.org/2000/svg">
<path d="M62.7583 52.1083L61.575 50.925L74.5458 42.2167C75.4438 41.733 76.1724 40.9863 76.6339 40.0766C77.0954 39.167 77.2676 38.138 77.1275 37.1277C76.9873 36.1174 76.5416 35.174 75.85 34.4243C75.1584 33.6746 74.254 33.1543 73.2583 32.9333L16.6666 16.6667L32.9333 73.1792C33.1549 74.1747 33.6756 75.0786 34.4256 75.7697C35.1755 76.4608 36.1189 76.906 37.1292 77.0457C38.1394 77.1853 39.1682 77.0127 40.0775 76.551C40.9869 76.0893 41.7333 75.3605 42.2166 74.4625L50.925 61.575L56.25 66.9M79.1666 91.6667V91.7083M79.1666 79.1667C81.0345 79.1607 82.8464 78.5283 84.3124 77.3706C85.7783 76.213 86.8135 74.597 87.2523 72.7814C87.6911 70.9657 87.5081 69.0554 86.7326 67.3561C85.9571 65.6567 84.634 64.2667 82.975 63.4083C81.3174 62.5592 79.4212 62.2959 77.595 62.6613C75.7688 63.0267 74.1199 63.9993 72.9166 65.4208" stroke="#1E1E1E" stroke-width="8.33333" stroke-linecap="round" stroke-linejoin="round"/>
</svg>
