<svg width="138" height="36" viewBox="0 0 138 36" fill="none" xmlns="http://www.w3.org/2000/svg">
<rect x="28" width="86" height="36" fill="#F8E79A"/>
<path d="M0 5.4C0 3.96783 0.563001 2.59432 1.56515 1.58162C2.5673 0.568927 3.9265 0 5.34375 0H51.6562C53.0735 0 54.4327 0.568927 55.4349 1.58162C56.437 2.59432 57 3.96783 57 5.4V10.8C57 11.2774 56.8123 11.7352 56.4783 12.0728C56.1442 12.4104 55.6912 12.6 55.2188 12.6C53.8015 12.6 52.4423 13.1689 51.4401 14.1816C50.438 15.1943 49.875 16.5678 49.875 18C49.875 19.4322 50.438 20.8057 51.4401 21.8184C52.4423 22.8311 53.8015 23.4 55.2188 23.4C55.6912 23.4 56.1442 23.5896 56.4783 23.9272C56.8123 24.2648 57 24.7226 57 25.2V30.6C57 32.0322 56.437 33.4057 55.4349 34.4184C54.4327 35.4311 53.0735 36 51.6562 36H5.34375C3.9265 36 2.5673 35.4311 1.56515 34.4184C0.563001 33.4057 0 32.0322 0 30.6L0 25.2C0 24.7226 0.187667 24.2648 0.521716 23.9272C0.855765 23.5896 1.30883 23.4 1.78125 23.4C3.1985 23.4 4.5577 22.8311 5.55985 21.8184C6.562 20.8057 7.125 19.4322 7.125 18C7.125 16.5678 6.562 15.1943 5.55985 14.1816C4.5577 13.1689 3.1985 12.6 1.78125 12.6C1.30883 12.6 0.855765 12.4104 0.521716 12.0728C0.187667 11.7352 0 11.2774 0 10.8V5.4ZM15.25 1.8C14.6977 1.8 14.25 2.24772 14.25 2.8V4.4C14.25 4.95228 14.6977 5.4 15.25 5.4H16.8125C17.3648 5.4 17.8125 4.95228 17.8125 4.4V2.8C17.8125 2.24772 17.3648 1.8 16.8125 1.8H15.25ZM16.8125 12.6C17.3648 12.6 17.8125 12.1523 17.8125 11.6V10C17.8125 9.44772 17.3648 9 16.8125 9H15.25C14.6977 9 14.25 9.44771 14.25 10V11.6C14.25 12.1523 14.6977 12.6 15.25 12.6H16.8125ZM41.75 12.6C42.3023 12.6 42.75 12.1523 42.75 11.6V10C42.75 9.44772 42.3023 9 41.75 9H40.1875C39.6352 9 39.1875 9.44771 39.1875 10V11.6C39.1875 12.1523 39.6352 12.6 40.1875 12.6H41.75ZM39.1875 4.4C39.1875 4.95228 39.6352 5.4 40.1875 5.4H41.75C42.3023 5.4 42.75 4.95228 42.75 4.4V2.8C42.75 2.24772 42.3023 1.8 41.75 1.8H40.1875C39.6352 1.8 39.1875 2.24772 39.1875 2.8V4.4ZM17.8125 17.2C17.8125 16.6477 17.3648 16.2 16.8125 16.2H15.25C14.6977 16.2 14.25 16.6477 14.25 17.2V18.8C14.25 19.3523 14.6977 19.8 15.25 19.8H16.8125C17.3648 19.8 17.8125 19.3523 17.8125 18.8V17.2ZM41.75 19.8C42.3023 19.8 42.75 19.3523 42.75 18.8V17.2C42.75 16.6477 42.3023 16.2 41.75 16.2H40.1875C39.6352 16.2 39.1875 16.6477 39.1875 17.2V18.8C39.1875 19.3523 39.6352 19.8 40.1875 19.8H41.75ZM17.8125 24.4C17.8125 23.8477 17.3648 23.4 16.8125 23.4H15.25C14.6977 23.4 14.25 23.8477 14.25 24.4V26C14.25 26.5523 14.6977 27 15.25 27H16.8125C17.3648 27 17.8125 26.5523 17.8125 26V24.4ZM41.75 27C42.3023 27 42.75 26.5523 42.75 26V24.4C42.75 23.8477 42.3023 23.4 41.75 23.4H40.1875C39.6352 23.4 39.1875 23.8477 39.1875 24.4V26C39.1875 26.5523 39.6352 27 40.1875 27H41.75ZM15.25 30.6C14.6977 30.6 14.25 31.0477 14.25 31.6V33.2C14.25 33.7523 14.6977 34.2 15.25 34.2H16.8125C17.3648 34.2 17.8125 33.7523 17.8125 33.2V31.6C17.8125 31.0477 17.3648 30.6 16.8125 30.6H15.25ZM39.1875 33.2C39.1875 33.7523 39.6352 34.2 40.1875 34.2H41.75C42.3023 34.2 42.75 33.7523 42.75 33.2V31.6C42.75 31.0477 42.3023 30.6 41.75 30.6H40.1875C39.6352 30.6 39.1875 31.0477 39.1875 31.6V33.2Z" fill="#F8E79A"/>
<path d="M81 5.4C81 3.96783 81.563 2.59432 82.5651 1.58162C83.5673 0.568927 84.9265 0 86.3438 0H132.656C134.074 0 135.433 0.568927 136.435 1.58162C137.437 2.59432 138 3.96783 138 5.4V10.8C138 11.2774 137.812 11.7352 137.478 12.0728C137.144 12.4104 136.691 12.6 136.219 12.6C134.801 12.6 133.442 13.1689 132.44 14.1816C131.438 15.1943 130.875 16.5678 130.875 18C130.875 19.4322 131.438 20.8057 132.44 21.8184C133.442 22.8311 134.801 23.4 136.219 23.4C136.691 23.4 137.144 23.5896 137.478 23.9272C137.812 24.2648 138 24.7226 138 25.2V30.6C138 32.0322 137.437 33.4057 136.435 34.4184C135.433 35.4311 134.074 36 132.656 36H86.3438C84.9265 36 83.5673 35.4311 82.5651 34.4184C81.563 33.4057 81 32.0322 81 30.6V25.2C81 24.7226 81.1877 24.2648 81.5217 23.9272C81.8558 23.5896 82.3088 23.4 82.7812 23.4C84.1985 23.4 85.5577 22.8311 86.5599 21.8184C87.562 20.8057 88.125 19.4322 88.125 18C88.125 16.5678 87.562 15.1943 86.5599 14.1816C85.5577 13.1689 84.1985 12.6 82.7812 12.6C82.3088 12.6 81.8558 12.4104 81.5217 12.0728C81.1877 11.7352 81 11.2774 81 10.8V5.4ZM96.25 1.8C95.6977 1.8 95.25 2.24772 95.25 2.8V4.4C95.25 4.95228 95.6977 5.4 96.25 5.4H97.8125C98.3648 5.4 98.8125 4.95228 98.8125 4.4V2.8C98.8125 2.24772 98.3648 1.8 97.8125 1.8H96.25ZM97.8125 12.6C98.3648 12.6 98.8125 12.1523 98.8125 11.6V10C98.8125 9.44772 98.3648 9 97.8125 9H96.25C95.6977 9 95.25 9.44771 95.25 10V11.6C95.25 12.1523 95.6977 12.6 96.25 12.6H97.8125ZM122.75 12.6C123.302 12.6 123.75 12.1523 123.75 11.6V10C123.75 9.44772 123.302 9 122.75 9H121.188C120.635 9 120.188 9.44771 120.188 10V11.6C120.188 12.1523 120.635 12.6 121.188 12.6H122.75ZM120.188 4.4C120.188 4.95228 120.635 5.4 121.188 5.4H122.75C123.302 5.4 123.75 4.95228 123.75 4.4V2.8C123.75 2.24772 123.302 1.8 122.75 1.8H121.188C120.635 1.8 120.188 2.24772 120.188 2.8V4.4ZM98.8125 17.2C98.8125 16.6477 98.3648 16.2 97.8125 16.2H96.25C95.6977 16.2 95.25 16.6477 95.25 17.2V18.8C95.25 19.3523 95.6977 19.8 96.25 19.8H97.8125C98.3648 19.8 98.8125 19.3523 98.8125 18.8V17.2ZM122.75 19.8C123.302 19.8 123.75 19.3523 123.75 18.8V17.2C123.75 16.6477 123.302 16.2 122.75 16.2H121.188C120.635 16.2 120.188 16.6477 120.188 17.2V18.8C120.188 19.3523 120.635 19.8 121.188 19.8H122.75ZM98.8125 24.4C98.8125 23.8477 98.3648 23.4 97.8125 23.4H96.25C95.6977 23.4 95.25 23.8477 95.25 24.4V26C95.25 26.5523 95.6977 27 96.25 27H97.8125C98.3648 27 98.8125 26.5523 98.8125 26V24.4ZM122.75 27C123.302 27 123.75 26.5523 123.75 26V24.4C123.75 23.8477 123.302 23.4 122.75 23.4H121.188C120.635 23.4 120.188 23.8477 120.188 24.4V26C120.188 26.5523 120.635 27 121.188 27H122.75ZM96.25 30.6C95.6977 30.6 95.25 31.0477 95.25 31.6V33.2C95.25 33.7523 95.6977 34.2 96.25 34.2H97.8125C98.3648 34.2 98.8125 33.7523 98.8125 33.2V31.6C98.8125 31.0477 98.3648 30.6 97.8125 30.6H96.25ZM120.188 33.2C120.188 33.7523 120.635 34.2 121.188 34.2H122.75C123.302 34.2 123.75 33.7523 123.75 33.2V31.6C123.75 31.0477 123.302 30.6 122.75 30.6H121.188C120.635 30.6 120.188 31.0477 120.188 31.6V33.2Z" fill="#F8E79A"/>
</svg>
