<svg width="24" height="24" viewBox="0 0 24 24" fill="none" xmlns="http://www.w3.org/2000/svg">
<path d="M8.47015 8.47015C8.61078 8.3297 8.8014 8.25081 9.00015 8.25081C9.1989 8.25081 9.38953 8.3297 9.53015 8.47015L12.0002 10.9402L14.4702 8.47015C14.5388 8.39647 14.6216 8.33736 14.7136 8.29637C14.8056 8.25538 14.9049 8.23334 15.0056 8.23156C15.1063 8.22979 15.2064 8.24831 15.2998 8.28603C15.3931 8.32375 15.478 8.3799 15.5492 8.45112C15.6204 8.52233 15.6766 8.60717 15.7143 8.70056C15.752 8.79394 15.7705 8.89397 15.7687 8.99468C15.767 9.09538 15.7449 9.19469 15.7039 9.28669C15.6629 9.37869 15.6038 9.46149 15.5302 9.53015L13.0602 12.0002L15.5302 14.4702C15.6626 14.6123 15.7348 14.8004 15.7313 14.9947C15.7279 15.189 15.6492 15.3744 15.5118 15.5118C15.3744 15.6492 15.189 15.7279 14.9947 15.7313C14.8004 15.7348 14.6123 15.6626 14.4702 15.5302L12.0002 13.0602L9.53015 15.5302C9.46149 15.6038 9.37869 15.6629 9.28669 15.7039C9.19469 15.7449 9.09538 15.767 8.99468 15.7687C8.89397 15.7705 8.79394 15.752 8.70056 15.7143C8.60717 15.6766 8.52233 15.6204 8.45112 15.5492C8.3799 15.478 8.32375 15.3931 8.28603 15.2998C8.24831 15.2064 8.22979 15.1063 8.23156 15.0056C8.23334 14.9049 8.25538 14.8056 8.29637 14.7136C8.33736 14.6216 8.39647 14.5388 8.47015 14.4702L10.9402 12.0002L8.47015 9.53015C8.3297 9.38953 8.25081 9.1989 8.25081 9.00015C8.25081 8.8014 8.3297 8.61078 8.47015 8.47015Z" fill="#F9F9F9"/>
<path fill-rule="evenodd" clip-rule="evenodd" d="M7.31733 3.76904C10.4298 3.42399 13.5709 3.42399 16.6833 3.76904C18.5103 3.97304 19.9853 5.41204 20.1993 7.24904C20.5693 10.406 20.5693 13.595 20.1993 16.752C19.9843 18.589 18.5093 20.027 16.6833 20.232C13.5709 20.5771 10.4298 20.5771 7.31733 20.232C5.49033 20.027 4.01533 18.589 3.80133 16.752C3.43211 13.5951 3.43211 10.4059 3.80133 7.24904C4.01533 5.41204 5.49133 3.97304 7.31733 3.76904ZM16.5173 5.25904C13.5152 4.92627 10.4855 4.92627 7.48333 5.25904C6.92757 5.32069 6.40883 5.56791 6.01091 5.96075C5.61299 6.35359 5.35912 6.86912 5.29033 7.42404C4.93468 10.465 4.93468 13.5371 5.29033 16.578C5.35933 17.1328 5.61329 17.6481 6.01119 18.0407C6.4091 18.4333 6.92772 18.6804 7.48333 18.742C10.4603 19.074 13.5403 19.074 16.5173 18.742C17.0728 18.6802 17.5912 18.433 17.9889 18.0404C18.3866 17.6478 18.6404 17.1326 18.7093 16.578C19.065 13.5371 19.065 10.465 18.7093 7.42404C18.6402 6.86963 18.3863 6.35468 17.9886 5.96226C17.5909 5.56983 17.0726 5.32281 16.5173 5.26104V5.25904Z" fill="#F9F9F9"/>
</svg>
