<svg width="24" height="24" viewBox="0 0 24 24" fill="none" xmlns="http://www.w3.org/2000/svg">
<path d="M12.5622 11.575C12.5622 11.7083 12.5416 11.8333 12.5002 11.95C12.4589 12.0667 12.3879 12.175 12.2872 12.275L7.68722 16.875C7.50389 17.0583 7.27455 17.1543 6.99922 17.163C6.72389 17.1717 6.48655 17.0757 6.28722 16.875C6.10389 16.6917 6.01222 16.4583 6.01222 16.175C6.01222 15.8917 6.10389 15.6583 6.28722 15.475L10.1622 11.575L6.28722 7.675C6.10389 7.49166 6.00822 7.26233 6.00022 6.987C5.99222 6.71166 6.08789 6.47433 6.28722 6.275C6.47055 6.09166 6.70389 6 6.98722 6C7.27055 6 7.50388 6.09166 7.68722 6.275L12.2872 10.875C12.3872 10.975 12.4582 11.0833 12.5002 11.2C12.5422 11.3167 12.5629 11.4417 12.5622 11.575ZM18.5622 11.575C18.5622 11.7083 18.5416 11.8333 18.5002 11.95C18.4589 12.0667 18.3879 12.175 18.2872 12.275L13.6872 16.875C13.5039 17.0583 13.2749 17.1543 13.0002 17.163C12.7256 17.1717 12.4879 17.0757 12.2872 16.875C12.1039 16.6917 12.0122 16.4583 12.0122 16.175C12.0122 15.8917 12.1039 15.6583 12.2872 15.475L16.1622 11.575L12.2872 7.675C12.1039 7.49166 12.0079 7.26233 11.9992 6.987C11.9906 6.71166 12.0866 6.47433 12.2872 6.275C12.4706 6.09166 12.7039 5.99999 12.9872 5.99999C13.2706 5.99999 13.5039 6.09166 13.6872 6.275L18.2872 10.875C18.3872 10.975 18.4582 11.0833 18.5002 11.2C18.5422 11.3167 18.5629 11.4417 18.5622 11.575Z" fill="#1E1E1E"/>
</svg>
