<svg width="24" height="24" viewBox="0 0 24 24" fill="none" xmlns="http://www.w3.org/2000/svg">
<g clip-path="url(#clip0_516_568)">
<path d="M11.1204 7.36487L7.36488 11.1204C7.24921 11.2358 7.15745 11.3729 7.09484 11.5238C7.03223 11.6748 7 11.8366 7 12C7 12.1634 7.03223 12.3252 7.09484 12.4761C7.15745 12.627 7.24921 12.7641 7.36488 12.8796L11.1204 16.6351C11.607 17.1216 12.393 17.1216 12.8796 16.6351L16.6351 12.8796C16.7508 12.7641 16.8426 12.627 16.9052 12.4761C16.9678 12.3252 17 12.1634 17 12C17 11.8366 16.9678 11.6748 16.9052 11.5238C16.8426 11.3729 16.7508 11.2358 16.6351 11.1204L12.8796 7.36487C12.7642 7.24921 12.6271 7.15745 12.4761 7.09484C12.3252 7.03223 12.1634 7 12 7C11.8366 7 11.6748 7.03223 11.5239 7.09484C11.3729 7.15745 11.2358 7.24921 11.1204 7.36487Z" fill="#EC676B"/>
<path d="M10.3114 0.710734L0.701825 10.3071C-0.233942 11.2428 -0.233942 12.7662 0.701825 13.7019L10.3114 23.2983C11.2472 24.2339 12.7708 24.2339 13.7066 23.2983L19.2012 17.7803V13.438L12.003 20.6353L3.35316 11.9985L12.003 3.34974L19.2012 10.547V6.20467L13.7066 0.710734C12.7708 -0.236911 11.2472 -0.236911 10.3114 0.710734ZM21.6006 10.799V17.9963C21.6006 18.656 22.1405 19.1958 22.8003 19.1958C23.4601 19.1958 24 18.656 24 17.9963V10.799C24 10.1392 23.4601 9.5994 22.8003 9.5994C22.1405 9.5994 21.6006 10.1392 21.6006 10.799Z" fill="#EC676B"/>
<path d="M23 24C23.5523 24 24 23.5523 24 23C24 22.4477 23.5523 22 23 22C22.4477 22 22 22.4477 22 23C22 23.5523 22.4477 24 23 24Z" fill="#EC676B"/>
</g>
<defs>
<clipPath id="clip0_516_568">
<rect width="24" height="24" fill="white"/>
</clipPath>
</defs>
</svg>
