<svg width="110" height="110" viewBox="0 0 110 110" fill="none" xmlns="http://www.w3.org/2000/svg">
<path d="M55.0003 9.16667C80.3141 9.16667 100.834 29.6863 100.834 55C100.834 58.3321 100.481 61.5771 99.8024 64.7075L91.6349 56.5354C91.9712 48.4905 89.65 40.5586 85.0297 33.9642C80.4094 27.3698 73.7469 22.4796 66.0708 20.0485C58.3946 17.6175 50.1317 17.7807 42.5575 20.5131C34.9834 23.2455 28.5193 28.3951 24.1631 35.1669C19.8069 41.9386 17.8008 49.9561 18.4546 57.9814C19.1085 66.0067 22.3858 73.5937 27.7806 79.5711C33.1755 85.5484 40.3879 89.5838 48.3045 91.0541C56.221 92.5245 64.4014 91.3482 71.5828 87.7067C73.3322 90.4792 75.7934 92.7316 78.7099 94.2288C71.5608 98.5603 63.3593 100.845 55.0003 100.833C29.6866 100.833 9.16699 80.3138 9.16699 55C9.16699 29.6863 29.6866 9.16667 55.0003 9.16667ZM87.0837 64.955L93.5645 71.4358C94.8261 72.697 95.6923 74.2988 96.0569 76.045C96.4216 77.7912 96.2688 79.6058 95.6173 81.2665C94.9659 82.9271 93.844 84.3616 92.3894 85.394C90.9347 86.4265 89.2103 87.0121 87.4277 87.079C85.6451 87.1459 83.8817 86.6913 82.3537 85.7708C80.8257 84.8503 79.5995 83.504 78.8253 81.8969C78.0512 80.2898 77.7628 78.4917 77.9955 76.7231C78.2282 74.9545 78.9718 73.2922 80.1353 71.94L80.6028 71.4358L87.0837 64.955ZM55.0003 68.75C61.7195 68.75 67.7649 71.6421 71.9587 76.2529L67.6274 80.1946C64.0066 78.7508 59.6662 77.9167 55.0003 77.9167C50.3345 77.9167 45.9941 78.7554 42.3732 80.19L38.042 76.2483C40.188 73.8831 42.8058 71.9938 45.7267 70.7023C48.6475 69.4108 51.8067 68.7458 55.0003 68.75ZM38.9587 45.8333C40.782 45.8333 42.5307 46.5577 43.82 47.847C45.1093 49.1363 45.8337 50.885 45.8337 52.7083C45.8337 54.5317 45.1093 56.2804 43.82 57.5697C42.5307 58.859 40.782 59.5833 38.9587 59.5833C37.1353 59.5833 35.3866 58.859 34.0973 57.5697C32.808 56.2804 32.0837 54.5317 32.0837 52.7083C32.0837 50.885 32.808 49.1363 34.0973 47.847C35.3866 46.5577 37.1353 45.8333 38.9587 45.8333ZM71.042 45.8333C72.8654 45.8333 74.614 46.5577 75.9033 47.847C77.1927 49.1363 77.917 50.885 77.917 52.7083C77.917 54.5317 77.1927 56.2804 75.9033 57.5697C74.614 58.859 72.8654 59.5833 71.042 59.5833C69.2186 59.5833 67.4699 58.859 66.1806 57.5697C64.8913 56.2804 64.167 54.5317 64.167 52.7083C64.167 50.885 64.8913 49.1363 66.1806 47.847C67.4699 46.5577 69.2186 45.8333 71.042 45.8333Z" fill="#1E1E1E"/>
</svg>
