<svg width="64" height="64" viewBox="0 0 64 64" fill="none" xmlns="http://www.w3.org/2000/svg">
<path d="M18.6667 45.3333H45.3333C45.8667 45.3333 46.2667 45.0889 46.5333 44.6C46.8 44.1111 46.7556 43.6444 46.4 43.2L39.0667 33.4C38.8 33.0444 38.4444 32.8667 38 32.8667C37.5556 32.8667 37.2 33.0444 36.9333 33.4L30 42.6667L25.0667 36.0667C24.8 35.7111 24.4444 35.5333 24 35.5333C23.5556 35.5333 23.2 35.7111 22.9333 36.0667L17.6 43.2C17.2444 43.6444 17.2 44.1111 17.4667 44.6C17.7333 45.0889 18.1333 45.3333 18.6667 45.3333ZM13.3333 56C11.8667 56 10.6107 55.4782 9.56533 54.4347C8.52178 53.3893 8 52.1333 8 50.6667V13.3333C8 11.8667 8.52178 10.6107 9.56533 9.56533C10.6107 8.52178 11.8667 8 13.3333 8H50.6667C52.1333 8 53.3893 8.52178 54.4347 9.56533C55.4782 10.6107 56 11.8667 56 13.3333V50.6667C56 52.1333 55.4782 53.3893 54.4347 54.4347C53.3893 55.4782 52.1333 56 50.6667 56H13.3333Z" fill="#1E1E1E"/>
</svg>
