<svg width="30" height="30" viewBox="0 0 30 30" fill="none" xmlns="http://www.w3.org/2000/svg">
<g clip-path="url(#clip0_268_492)">
<path d="M15 2.5L15.405 2.50125L15.8025 2.50625L16.5725 2.5275L16.9463 2.54375L17.67 2.58625L18.3613 2.64375C24.3425 3.22375 26.7763 5.6575 27.3563 11.6387L27.4137 12.33L27.4563 13.0537C27.4625 13.1762 27.4688 13.3012 27.4725 13.4275L27.4938 14.1975L27.5 15L27.4938 15.8025L27.4725 16.5725L27.4563 16.9463L27.4137 17.67L27.3563 18.3613C26.7763 24.3425 24.3425 26.7763 18.3613 27.3563L17.67 27.4137L16.9463 27.4563C16.8238 27.4625 16.6988 27.4688 16.5725 27.4725L15.8025 27.4938L15 27.5L14.1975 27.4938L13.4275 27.4725L13.0537 27.4563L12.33 27.4137L11.6387 27.3563C5.6575 26.7763 3.22375 24.3425 2.64375 18.3613L2.58625 17.67L2.54375 16.9463C2.53767 16.8217 2.53225 16.6971 2.5275 16.5725L2.50625 15.8025C2.5025 15.54 2.5 15.2725 2.5 15L2.50125 14.595L2.50625 14.1975L2.5275 13.4275L2.54375 13.0537L2.58625 12.33L2.64375 11.6387C3.22375 5.6575 5.6575 3.22375 11.6387 2.64375L12.33 2.58625L13.0537 2.54375C13.1762 2.5375 13.3012 2.53125 13.4275 2.5275L14.1975 2.50625C14.46 2.5025 14.7275 2.5 15 2.5ZM15 10C14.6685 10 14.3505 10.1317 14.1161 10.3661C13.8817 10.6005 13.75 10.9185 13.75 11.25V13.75H11.25L11.1038 13.7587C10.7874 13.7964 10.4973 13.9534 10.2928 14.1977C10.0883 14.442 9.98486 14.7552 10.0035 15.0733C10.0222 15.3913 10.1616 15.6902 10.3933 15.9089C10.625 16.1277 10.9314 16.2496 11.25 16.25H13.75V18.75L13.7587 18.8962C13.7964 19.2126 13.9534 19.5027 14.1977 19.7072C14.442 19.9117 14.7552 20.0151 15.0733 19.9965C15.3913 19.9778 15.6902 19.8384 15.9089 19.6067C16.1277 19.375 16.2496 19.0686 16.25 18.75V16.25H18.75L18.8962 16.2413C19.2126 16.2036 19.5027 16.0466 19.7072 15.8023C19.9117 15.558 20.0151 15.2448 19.9965 14.9267C19.9778 14.6087 19.8384 14.3098 19.6067 14.0911C19.375 13.8723 19.0686 13.7504 18.75 13.75H16.25V11.25L16.2413 11.1038C16.2054 10.7997 16.0593 10.5193 15.8305 10.3159C15.6017 10.1124 15.3062 10 15 10Z" fill="#F9F9F9"/>
</g>
<defs>
<clipPath id="clip0_268_492">
<rect width="30" height="30" fill="white"/>
</clipPath>
</defs>
</svg>
