<svg width="24" height="24" viewBox="0 0 24 24" fill="none" xmlns="http://www.w3.org/2000/svg">
<path d="M19.8562 8.9281L17.7122 21.7281C17.6786 21.9117 17.5818 22.0778 17.4386 22.1977C17.2955 22.3175 17.1149 22.3834 16.9282 22.3841H7.0722C6.8855 22.3834 6.70493 22.3175 6.56175 22.1977C6.41857 22.0778 6.3218 21.9117 6.2882 21.7281L4.1442 8.9281C4.12573 8.81418 4.13213 8.69761 4.16295 8.5864C4.19378 8.47518 4.2483 8.37195 4.32278 8.2838C4.39726 8.19564 4.48993 8.12464 4.59443 8.07567C4.69893 8.0267 4.81279 8.00092 4.9282 8.0001H19.0562C19.1729 7.99859 19.2886 8.02266 19.3951 8.07061C19.5015 8.11857 19.5962 8.18924 19.6724 8.27768C19.7487 8.36612 19.8046 8.47017 19.8364 8.58253C19.8681 8.69489 19.8749 8.81284 19.8562 8.9281ZM20.8002 5.6001C20.8002 5.81227 20.7159 6.01575 20.5659 6.16578C20.4159 6.31581 20.2124 6.4001 20.0002 6.4001H4.0002C3.78802 6.4001 3.58454 6.31581 3.43451 6.16578C3.28448 6.01575 3.2002 5.81227 3.2002 5.6001C3.2002 5.38792 3.28448 5.18444 3.43451 5.03441C3.58454 4.88438 3.78802 4.8001 4.0002 4.8001H8.0002V2.4001C8.0002 2.18792 8.08448 1.98444 8.23451 1.83441C8.38454 1.68438 8.58802 1.6001 8.8002 1.6001H15.2002C15.4124 1.6001 15.6159 1.68438 15.7659 1.83441C15.9159 1.98444 16.0002 2.18792 16.0002 2.4001V4.8001H20.0002C20.2124 4.8001 20.4159 4.88438 20.5659 5.03441C20.7159 5.18444 20.8002 5.38792 20.8002 5.6001ZM14.4002 4.8001V3.2001H9.6002V4.8001H14.4002Z" fill="#F9F9F9"/>
</svg>
