<svg width="16" height="16" viewBox="0 0 16 16" fill="none" xmlns="http://www.w3.org/2000/svg">
<path d="M7.66 1C3.98 1 1 3.98667 1 7.66667C1 11.3467 3.98 14.3333 7.66 14.3333C11.3467 14.3333 14.3333 11.3467 14.3333 7.66667C14.3333 3.98667 11.3467 1 7.66 1ZM10.3333 10.3333C10.2717 10.3951 10.1984 10.4442 10.1178 10.4776C10.0371 10.5111 9.95065 10.5283 9.86333 10.5283C9.77602 10.5283 9.68957 10.5111 9.60892 10.4776C9.52827 10.4442 9.45501 10.3951 9.39333 10.3333L7.2 8.14C7.13701 8.07826 7.08689 8.00463 7.05256 7.92338C7.01823 7.84213 7.00037 7.75487 7 7.66667V5C7 4.63333 7.3 4.33333 7.66667 4.33333C8.03333 4.33333 8.33333 4.63333 8.33333 5V7.39333L10.3333 9.39333C10.5933 9.65333 10.5933 10.0733 10.3333 10.3333Z" fill="#1E1E1E"/>
</svg>
