<svg width="16" height="16" viewBox="0 0 16 16" fill="none" xmlns="http://www.w3.org/2000/svg">
<g clip-path="url(#clip0_565_778)">
<path fill-rule="evenodd" clip-rule="evenodd" d="M8.00016 1.3335C4.31816 1.3335 1.3335 4.31816 1.3335 8.00016C1.3335 9.26016 1.6835 10.4402 2.29216 11.4455L1.6975 13.4668C1.66335 13.5829 1.66111 13.706 1.69099 13.8232C1.72088 13.9404 1.78179 14.0475 1.86734 14.133C1.95288 14.2185 2.05988 14.2794 2.17711 14.3093C2.29433 14.3392 2.41744 14.337 2.5335 14.3028L4.55483 13.7082C5.59395 14.3369 6.78564 14.6685 8.00016 14.6668C11.6822 14.6668 14.6668 11.6822 14.6668 8.00016C14.6668 4.31816 11.6822 1.3335 8.00016 1.3335ZM6.49216 9.50883C7.84083 10.8568 9.12816 11.0348 9.58283 11.0515C10.2742 11.0768 10.9475 10.5488 11.2095 9.93616C11.2426 9.85995 11.2546 9.77625 11.2443 9.69381C11.2339 9.61137 11.2017 9.53321 11.1508 9.4675C10.7855 9.00083 10.2915 8.6655 9.80883 8.33216C9.70805 8.26248 9.58421 8.23453 9.46328 8.25417C9.34235 8.27381 9.23371 8.33951 9.16016 8.4375L8.76016 9.0475C8.73913 9.08029 8.70636 9.10381 8.66856 9.11322C8.63076 9.12264 8.59079 9.11726 8.55683 9.09816C8.2855 8.94283 7.89016 8.67883 7.60616 8.39483C7.32216 8.11083 7.07416 7.7335 6.93483 7.4795C6.91755 7.44723 6.91256 7.40979 6.92077 7.37412C6.92899 7.33845 6.94985 7.30696 6.9795 7.2855L7.5955 6.82816C7.68341 6.75173 7.74014 6.64563 7.75489 6.53007C7.76964 6.41451 7.74138 6.29757 7.6755 6.2015C7.37683 5.76416 7.02883 5.20816 6.52416 4.8395C6.45903 4.7923 6.38274 4.76287 6.30278 4.7541C6.22283 4.74534 6.14197 4.75753 6.06816 4.7895C5.45483 5.05216 4.92416 5.7255 4.9495 6.41816C4.96616 6.87283 5.14416 8.16016 6.49216 9.50883Z" fill="#1E1E1E"/>
</g>
<defs>
<clipPath id="clip0_565_778">
<rect width="16" height="16" fill="white"/>
</clipPath>
</defs>
</svg>
