<svg width="24" height="24" viewBox="0 0 24 24" fill="none" xmlns="http://www.w3.org/2000/svg">
<g clip-path="url(#clip0_92_313)">
<mask id="mask0_92_313" style="mask-type:luminance" maskUnits="userSpaceOnUse" x="0" y="0" width="24" height="24">
<path d="M2.50204 21.1155C2.50275 21.1667 2.51355 21.2173 2.53382 21.2643C2.55408 21.3114 2.58341 21.354 2.62014 21.3897C2.65687 21.4254 2.70027 21.4535 2.74786 21.4724C2.79546 21.4914 2.84632 21.5007 2.89754 21.5H21.101C21.1523 21.5008 21.2032 21.4915 21.2509 21.4726C21.2985 21.4537 21.342 21.4256 21.3788 21.3899C21.4155 21.3541 21.4449 21.3115 21.4652 21.2645C21.4855 21.2174 21.4963 21.1668 21.497 21.1155V20.6565C21.506 20.518 21.5245 19.828 21.0695 19.0645C20.7825 18.583 20.366 18.1675 19.8315 17.8285C19.185 17.4185 18.3625 17.122 17.3675 16.9435C16.8625 16.8724 16.3614 16.775 15.8665 16.6515C14.5505 16.3155 14.4355 16.018 14.4345 16.015C14.4269 15.9856 14.4159 15.9573 14.4015 15.9305C14.3905 15.8755 14.364 15.6665 14.415 15.107C14.544 13.6855 15.3065 12.8455 15.919 12.1705C16.112 11.958 16.2945 11.7565 16.435 11.5595C17.0415 10.7095 17.0975 9.74201 17.1 9.68201C17.1023 9.57569 17.0876 9.46969 17.0565 9.36801C16.9965 9.18301 16.885 9.06801 16.803 8.98301C16.7836 8.96355 16.7648 8.94354 16.7465 8.92301C16.7405 8.91601 16.7245 8.89701 16.739 8.80151C16.7881 8.49386 16.8219 8.18398 16.8405 7.87301C16.8685 7.37201 16.89 6.62301 16.7605 5.89351C16.7415 5.75417 16.7128 5.61633 16.6745 5.48101C16.538 4.97901 16.319 4.55001 16.0145 4.19601C15.962 4.13851 14.688 2.79601 10.9895 2.52101C10.478 2.48301 9.97254 2.50351 9.47453 2.52901C9.32726 2.53228 9.18069 2.55037 9.03703 2.58301C8.65504 2.68151 8.55304 2.92351 8.52654 3.05901C8.48204 3.28401 8.56004 3.45801 8.61154 3.57401C8.61904 3.59051 8.62854 3.61101 8.61204 3.66501C8.52654 3.79801 8.39104 3.91801 8.25354 4.03151C8.21354 4.06501 7.28654 4.86501 7.23554 5.90951C7.09804 6.70401 7.10804 7.94151 7.27054 8.79701C7.28054 8.84451 7.29404 8.91451 7.27154 8.96201C7.09654 9.11851 6.89854 9.29601 6.89904 9.70101C6.90104 9.74201 6.95754 10.709 7.56404 11.5595C7.70404 11.7565 7.88654 11.9575 8.07904 12.17L8.08004 12.1705C8.69254 12.8455 9.45503 13.6855 9.58403 15.1065C9.63453 15.6665 9.60804 15.875 9.59754 15.9305C9.58302 15.9572 9.57177 15.9856 9.56404 16.015C9.56354 16.018 9.44904 16.3145 8.13904 16.65C7.38304 16.8435 6.63904 16.9425 6.61654 16.945C5.64954 17.1085 4.83204 17.398 4.18654 17.8055C3.65404 18.142 3.23654 18.559 2.94654 19.044C2.48254 19.819 2.49504 20.525 2.50154 20.654V21.1155H2.50204Z" fill="white" stroke="white" stroke-width="3.33333" stroke-linejoin="round"/>
</mask>
<g mask="url(#mask0_92_313)">
<path d="M0.800171 0.800018H23.2002V23.2H0.800171V0.800018Z" fill="#1E1E1E"/>
</g>
</g>
<defs>
<clipPath id="clip0_92_313">
<rect width="24" height="24" fill="white"/>
</clipPath>
</defs>
</svg>
