<svg width="20" height="20" viewBox="0 0 20 20" fill="none" xmlns="http://www.w3.org/2000/svg">
<path d="M2.22222 20C1.61111 20 1.08778 19.7822 0.652224 19.3467C0.216668 18.9111 -0.000738854 18.3881 1.88644e-06 17.7778V2.22222C1.88644e-06 1.61111 0.21778 1.08778 0.653335 0.652224C1.08889 0.216668 1.61185 -0.000738854 2.22222 1.88644e-06H14.6389C14.9352 1.88644e-06 15.2178 0.0555575 15.4867 0.166669C15.7556 0.27778 15.9915 0.435187 16.1944 0.638891L19.3611 3.80556C19.5648 4.00926 19.7222 4.24556 19.8333 4.51445C19.9444 4.78333 20 5.06556 20 5.36111V17.7778C20 18.3889 19.7822 18.9122 19.3467 19.3478C18.9111 19.7833 18.3881 20.0007 17.7778 20H2.22222ZM10 16.6667C10.9259 16.6667 11.713 16.3426 12.3611 15.6944C13.0093 15.0463 13.3333 14.2593 13.3333 13.3333C13.3333 12.4074 13.0093 11.6204 12.3611 10.9722C11.713 10.3241 10.9259 10 10 10C9.07408 10 8.28704 10.3241 7.63889 10.9722C6.99074 11.6204 6.66667 12.4074 6.66667 13.3333C6.66667 14.2593 6.99074 15.0463 7.63889 15.6944C8.28704 16.3426 9.07408 16.6667 10 16.6667ZM4.44445 7.77778H12.2222C12.537 7.77778 12.8011 7.67111 13.0144 7.45778C13.2278 7.24445 13.3341 6.98074 13.3333 6.66667V4.44445C13.3333 4.12963 13.2267 3.86556 13.0133 3.65222C12.8 3.43889 12.5363 3.33259 12.2222 3.33333H4.44445C4.12963 3.33333 3.86556 3.44 3.65222 3.65333C3.43889 3.86667 3.33259 4.13037 3.33333 4.44445V6.66667C3.33333 6.98148 3.44 7.24556 3.65334 7.45889C3.86667 7.67222 4.13037 7.77852 4.44445 7.77778Z" fill="#F9F9F9"/>
</svg>
