<svg width="23" height="22" viewBox="0 0 23 22" fill="none" xmlns="http://www.w3.org/2000/svg">
<path d="M19.6289 3.751L16.4382 0.638C16.0211 0.231 15.4461 0 14.8485 0H2.2549C1.01471 0 0 0.99 0 2.2V17.6C0 18.81 1.01471 19.8 2.2549 19.8H10.598L20.2941 10.34V5.313C20.2941 4.73 20.0574 4.169 19.6289 3.751ZM10.1471 16.5C8.27549 16.5 6.76471 15.026 6.76471 13.2C6.76471 11.374 8.27549 9.9 10.1471 9.9C12.0186 9.9 13.5294 11.374 13.5294 13.2C13.5294 15.026 12.0186 16.5 10.1471 16.5ZM13.5294 6.6C13.5294 7.205 13.0221 7.7 12.402 7.7H4.5098C3.88971 7.7 3.38235 7.205 3.38235 6.6V4.4C3.38235 3.795 3.88971 3.3 4.5098 3.3H12.402C13.0221 3.3 13.5294 3.795 13.5294 4.4V6.6ZM19.1554 14.575L21.151 16.522L15.6941 21.846C15.5814 21.945 15.4348 22 15.2882 22H14.0931C13.7775 22 13.5294 21.758 13.5294 21.45V20.284C13.5294 20.141 13.5858 19.998 13.6985 19.899L19.1554 14.575ZM22.8309 14.861L21.8725 15.796L19.877 13.849L20.8353 12.914C21.0608 12.694 21.4103 12.694 21.6358 12.914L22.8309 14.08C23.0564 14.3 23.0564 14.652 22.8309 14.861Z" fill="#F9F9F9"/>
</svg>
