<svg width="24" height="24" viewBox="0 0 24 24" fill="none" xmlns="http://www.w3.org/2000/svg">
<path d="M9.27481 6.275C9.45814 6.09167 9.69147 6 9.9748 6C10.2581 6 10.4915 6.09167 10.6748 6.275L15.2748 10.875C15.3748 10.975 15.4455 11.0833 15.4868 11.2C15.5281 11.3167 15.5491 11.4417 15.5498 11.575C15.5498 11.7083 15.5248 11.8377 15.4748 11.963C15.4248 12.0883 15.3581 12.1923 15.2748 12.275L10.6748 16.875C10.4915 17.0583 10.2581 17.15 9.9748 17.15C9.69147 17.15 9.45814 17.0583 9.2748 16.875C9.09147 16.6917 8.9998 16.4583 8.9998 16.175C8.9998 15.8917 9.09147 15.6583 9.2748 15.475L13.1748 11.575L9.2748 7.675C9.09147 7.49167 8.9998 7.25833 8.9998 6.975C8.9998 6.69167 9.09147 6.45833 9.27481 6.275Z" fill="#1E1E1E"/>
</svg>
