<svg width="24" height="24" viewBox="0 0 24 24" fill="none" xmlns="http://www.w3.org/2000/svg">
<path d="M22.7701 19.32L21.7001 18.5C21.7201 18.33 21.7401 18.17 21.7401 18C21.7401 17.83 21.7301 17.67 21.7001 17.5L22.7601 16.68C22.8051 16.6415 22.8355 16.5887 22.8464 16.5306C22.8573 16.4724 22.8481 16.4122 22.8201 16.36L21.8201 14.63C21.7601 14.5 21.6301 14.5 21.5001 14.5L20.2701 15C20.0001 14.82 19.7301 14.65 19.4201 14.53L19.2301 13.21C19.2238 13.153 19.197 13.1003 19.1547 13.0617C19.1124 13.023 19.0574 13.0011 19.0001 13H17.0001C16.939 12.9989 16.8795 13.0193 16.8319 13.0577C16.7844 13.0961 16.7519 13.15 16.7401 13.21L16.5501 14.53C16.2501 14.66 15.9601 14.82 15.7001 15L14.4601 14.5C14.3501 14.5 14.2201 14.5 14.1501 14.63L13.1501 16.36C13.0901 16.47 13.1101 16.6 13.2101 16.68L14.2701 17.5C14.2302 17.8321 14.2302 18.1679 14.2701 18.5L13.2101 19.32C13.1652 19.3585 13.1348 19.4113 13.1238 19.4694C13.1129 19.5276 13.1222 19.5878 13.1501 19.64L14.1501 21.37C14.2101 21.5 14.3401 21.5 14.4601 21.5L15.7001 21C15.9601 21.18 16.2401 21.35 16.5501 21.47L16.7401 22.79C16.7601 22.91 16.8601 23 17.0001 23H19.0001C19.1101 23 19.2201 22.91 19.2401 22.79L19.4301 21.47C19.7301 21.34 20.0001 21.18 20.2701 21L21.5001 21.5C21.6301 21.5 21.7601 21.5 21.8301 21.37L22.8301 19.64C22.8581 19.5878 22.8673 19.5276 22.8564 19.4694C22.8455 19.4113 22.8151 19.3585 22.7701 19.32ZM18.0001 19.5C17.1601 19.5 16.5001 18.83 16.5001 18C16.5001 17.17 17.1701 16.5 18.0001 16.5C18.8301 16.5 19.5001 17.17 19.5001 18C19.5001 18.83 18.8301 19.5 18.0001 19.5ZM3.00013 3C2.78013 3 2.57013 3.08 2.38013 3.22C2.17257 3.38355 2.03817 3.6226 2.00632 3.88493C1.97446 4.14726 2.04774 4.41153 2.21013 4.62L7.97013 12H8.00013V17.87C7.96013 18.16 8.06013 18.47 8.29013 18.7L10.3001 20.71C10.6501 21.06 11.1901 21.08 11.5801 20.8C11.2001 19.91 11.0001 18.96 11.0001 18C11.0001 16.73 11.3501 15.5 12.0001 14.4V12H12.0301L17.7901 4.62C17.9525 4.41153 18.0258 4.14726 17.9939 3.88493C17.9621 3.6226 17.8277 3.38355 17.6201 3.22C17.4301 3.08 17.2201 3 17.0001 3H3.00013Z" fill="#F9F9F9"/>
</svg>
