<svg width="111" height="111" viewBox="0 0 111 111" fill="none" xmlns="http://www.w3.org/2000/svg">
<rect width="111" height="111" fill="#F9F9F9"/>
<path d="M12.6667 77.3333H10.7187C10.013 77.3333 9.38281 77.7787 9.14844 78.4427L6.08073 87.1042C6.02865 87.2552 6 87.4167 6 87.5781C6 88.362 6.63802 89 7.42187 89H12.6667V87.3333C12.6667 86.8724 13.0391 86.5 13.5 86.5C13.9609 86.5 14.3333 86.8724 14.3333 87.3333V89H19.5781C20.3646 89 21 88.362 21 87.5781C21 87.4167 20.9714 87.2552 20.9193 87.1042L17.8516 78.4427C17.6146 77.7787 16.987 77.3333 16.2812 77.3333H14.3333V79C14.3333 79.4609 13.9609 79.8333 13.5 79.8333C13.0391 79.8333 12.6667 79.4609 12.6667 79V77.3333ZM14.3333 82.3333V84C14.3333 84.4609 13.9609 84.8333 13.5 84.8333C13.0391 84.8333 12.6667 84.4609 12.6667 84V82.3333C12.6667 81.8724 13.0391 81.5 13.5 81.5C13.9609 81.5 14.3333 81.8724 14.3333 82.3333Z" fill="#1E1E1E" fill-opacity="0.15"/>
<g clip-path="url(#clip0_355_548)">
<path d="M36 9C36 8.17266 36.6727 7.5 37.5 7.5H39.9914C40.6055 7.5 41.1563 7.87266 41.3836 8.44219L42.5086 11.25H45V10.4578C45 9.87656 45.1359 9.30234 45.3961 8.77969L45.4547 8.6625C45.6398 8.29219 46.0898 8.14219 46.4602 8.32734C46.8305 8.5125 46.9805 8.9625 46.7953 9.33281L46.7367 9.45C46.5797 9.76172 46.5 10.1062 46.5 10.4555V11.25H47.8125C48.3305 11.25 48.75 11.6695 48.75 12.1875V13.2516C48.75 13.6383 48.5508 13.9992 48.2203 14.2055L47.2055 14.8406C46.8727 14.7023 46.507 14.625 46.125 14.625C45.2039 14.625 44.3883 15.068 43.875 15.75H42C42 16.1648 41.6648 16.5 41.25 16.5H41.0578C41.018 16.6125 40.9711 16.7227 40.9219 16.8305L41.0578 16.9664C41.3508 17.2594 41.3508 17.7352 41.0578 18.0281L40.5281 18.5578C40.2352 18.8508 39.7594 18.8508 39.4664 18.5578L39.3305 18.4219C39.2227 18.4734 39.1125 18.518 39 18.5578V18.75C39 19.1648 38.6648 19.5 38.25 19.5H37.5C37.0852 19.5 36.75 19.1648 36.75 18.75V18.5578C36.6375 18.518 36.5273 18.4711 36.4195 18.4219L36.2836 18.5578C35.9906 18.8508 35.5148 18.8508 35.2219 18.5578L34.6922 18.0258C34.3992 17.7328 34.3992 17.257 34.6922 16.9641L34.8281 16.8281C34.7766 16.7203 34.732 16.6102 34.6922 16.4977H34.5C34.0852 16.4977 33.75 16.1625 33.75 15.7477V15C33.75 14.5852 34.0852 14.25 34.5 14.25H34.6922C34.732 14.1375 34.7789 14.0273 34.8281 13.9195L34.6922 13.7836C34.3992 13.4906 34.3992 13.0148 34.6922 12.7219L35.2219 12.1922C35.4328 11.9812 35.7352 11.9227 35.9977 12.0141V12V11.25V9H36ZM39.9914 9H37.5V11.25H38.25H40.8914L39.9914 9ZM37.875 13.5C36.8391 13.5 36 14.3391 36 15.375C36 16.4109 36.8391 17.25 37.875 17.25C38.9109 17.25 39.75 16.4109 39.75 15.375C39.75 14.3391 38.9109 13.5 37.875 13.5ZM46.125 18C46.4367 18 46.6875 17.7492 46.6875 17.4375C46.6875 17.1258 46.4367 16.875 46.125 16.875C45.8133 16.875 45.5625 17.1258 45.5625 17.4375C45.5625 17.7492 45.8133 18 46.125 18ZM46.125 19.5C44.9859 19.5 44.0625 18.5766 44.0625 17.4375C44.0625 16.7391 44.4094 16.1227 44.9391 15.75C45.2742 15.5133 45.6844 15.375 46.125 15.375C46.1883 15.375 46.2492 15.3773 46.3102 15.382C47.3625 15.4758 48.1875 16.3594 48.1875 17.4375C48.1875 18.5766 47.2641 19.5 46.125 19.5Z" fill="#1E1E1E" fill-opacity="0.15"/>
</g>
<path d="M100 33.3984L95 31.9688V21.9349L100 23.3646V33.3984ZM100.833 33.3672V23.3021L104.143 21.9766C104.555 21.8125 105 22.1146 105 22.5573V31.2761C105 31.5313 104.844 31.7604 104.607 31.8568L100.833 33.3646V33.3672ZM90.3932 23.4766L94.1667 21.9688V32.0313L90.8568 33.3568C90.4453 33.5208 90 33.2188 90 32.7761V24.0573C90 23.8021 90.1562 23.5729 90.3932 23.4766Z" fill="#1E1E1E" fill-opacity="0.15"/>
<path d="M62.25 63.0938C62.25 61.7988 63.2988 60.75 64.5938 60.75H74.9062C76.2012 60.75 77.25 61.7988 77.25 63.0938V71.5312C77.25 72.2988 76.8809 72.9785 76.3125 73.4062V74.8125C76.3125 75.3311 75.8936 75.75 75.375 75.75H74.4375C73.9189 75.75 73.5 75.3311 73.5 74.8125V73.875H66V74.8125C66 75.3311 65.5811 75.75 65.0625 75.75H64.125C63.6064 75.75 63.1875 75.3311 63.1875 74.8125V73.4062C62.6191 72.9785 62.25 72.2988 62.25 71.5312V63.0938ZM66.0557 65.209L65.5312 67.3125H73.9688L73.4443 65.209C73.3389 64.793 72.9639 64.5 72.5332 64.5H66.9668C66.5361 64.5 66.1611 64.793 66.0586 65.209H66.0557ZM66 70.125C66 69.6064 65.5811 69.1875 65.0625 69.1875C64.5439 69.1875 64.125 69.6064 64.125 70.125C64.125 70.6436 64.5439 71.0625 65.0625 71.0625C65.5811 71.0625 66 70.6436 66 70.125ZM74.4375 71.0625C74.9561 71.0625 75.375 70.6436 75.375 70.125C75.375 69.6064 74.9561 69.1875 74.4375 69.1875C73.9189 69.1875 73.5 69.6064 73.5 70.125C73.5 70.6436 73.9189 71.0625 74.4375 71.0625Z" fill="#1E1E1E" fill-opacity="0.15"/>
<defs>
<clipPath id="clip0_355_548">
<rect width="15" height="12" fill="white" transform="translate(33.75 7.5)"/>
</clipPath>
</defs>
</svg>
