<svg width="54" height="54" viewBox="0 0 54 54" fill="none" xmlns="http://www.w3.org/2000/svg">
<path d="M50.6844 22.0185L46.9908 10.9377C46.455 9.3244 45.4244 7.92099 44.0454 6.92687C42.6664 5.93275 41.0093 5.39849 39.3093 5.4H32.4V0H21.6V5.4H14.6907C12.9908 5.39849 11.3336 5.93275 9.95459 6.92687C8.57562 7.92099 7.54501 9.3244 7.0092 10.9377L3.3156 22.0185C2.3334 22.4295 1.49461 23.1216 0.90468 24.008C0.314747 24.8943 -1.29843e-06 25.9353 0 27V40.5C0 42.4926 1.0908 44.2152 2.7 45.1521V51.3C2.7 52.0161 2.98446 52.7028 3.49081 53.2092C3.99716 53.7155 4.68392 54 5.4 54H8.1C8.81608 54 9.50284 53.7155 10.0092 53.2092C10.5155 52.7028 10.8 52.0161 10.8 51.3V45.9H43.2V51.3C43.2 52.0161 43.4845 52.7028 43.9908 53.2092C44.4972 53.7155 45.1839 54 45.9 54H48.6C49.3161 54 50.0028 53.7155 50.5092 53.2092C51.0155 52.7028 51.3 52.0161 51.3 51.3V45.1521C52.1192 44.6823 52.8 44.005 53.274 43.1882C53.7481 42.3715 53.9985 41.4443 54 40.5V27C54 25.9353 53.6852 24.8943 53.0953 24.008C52.5054 23.1216 51.6666 22.4295 50.6844 22.0185ZM14.6907 10.8H39.3066C40.4703 10.8 41.5017 11.5398 41.8689 12.6468L44.8551 21.6H9.1449L12.1284 12.6468C12.3075 12.1089 12.6514 11.6411 13.1113 11.3096C13.5712 10.9782 14.1238 10.7999 14.6907 10.8ZM9.45 37.8C8.91797 37.7998 8.39118 37.6949 7.89972 37.4911C7.40825 37.2873 6.96174 36.9888 6.58566 36.6124C6.20958 36.2361 5.91131 35.7894 5.70787 35.2978C5.50444 34.8062 5.39982 34.2793 5.4 33.7473C5.40018 33.2153 5.50514 32.6885 5.70891 32.197C5.91267 31.7056 6.21124 31.259 6.58757 30.883C6.9639 30.5069 7.41061 30.2086 7.90221 30.0052C8.39381 29.8017 8.92067 29.6971 9.4527 29.6973C10.5272 29.6977 11.5575 30.1248 12.317 30.8849C13.0766 31.6449 13.5031 32.6755 13.5027 33.75C13.5023 34.8245 13.0752 35.8548 12.3151 36.6143C11.5551 37.3739 10.5245 37.8004 9.45 37.8ZM44.55 37.8C44.018 37.7998 43.4912 37.6949 42.9997 37.4911C42.5083 37.2873 42.0617 36.9888 41.6857 36.6124C41.3096 36.2361 41.0113 35.7894 40.8079 35.2978C40.6044 34.8062 40.4998 34.2793 40.5 33.7473C40.5002 33.2153 40.6051 32.6885 40.8089 32.197C41.0127 31.7056 41.3112 31.259 41.6876 30.883C42.0639 30.5069 42.5106 30.2086 43.0022 30.0052C43.4938 29.8017 44.0207 29.6971 44.5527 29.6973C45.6272 29.6977 46.6575 30.1248 47.417 30.8849C48.1766 31.6449 48.6031 32.6755 48.6027 33.75C48.6023 34.8245 48.1752 35.8548 47.4151 36.6143C46.6551 37.3739 45.6245 37.8004 44.55 37.8Z" fill="#F8E79A"/>
</svg>
