<svg width="98" height="53" viewBox="0 0 98 53" fill="none" xmlns="http://www.w3.org/2000/svg">
<path d="M0 0L6.625 6.625L0 13.25L6.625 19.875L0 26.5L6.625 33.125L0 39.75H61.8333C61.8333 43.2641 63.2293 46.6343 65.7142 49.1192C68.199 51.604 71.5692 53 75.0833 53C78.5974 53 81.9676 51.604 84.4525 49.1192C86.9374 46.6343 88.3333 43.2641 88.3333 39.75H97.1667V26.5C97.1667 21.5975 93.2358 17.6667 88.3333 17.6667H79.5L66.25 0H0ZM15.9883 6.625H41.9583V17.6667H13.78L9.36333 13.25L15.9883 6.625ZM48.5833 6.625H64.0417L72.6983 17.6667H48.5833V6.625ZM75.0833 33.125C76.8404 33.125 78.5255 33.823 79.7679 35.0654C81.0103 36.3078 81.7083 37.9929 81.7083 39.75C81.7083 41.5071 81.0103 43.1921 79.7679 44.4346C78.5255 45.677 76.8404 46.375 75.0833 46.375C73.3263 46.375 71.6412 45.677 70.3988 44.4346C69.1563 43.1921 68.4583 41.5071 68.4583 39.75C68.4583 37.9929 69.1563 36.3078 70.3988 35.0654C71.6412 33.823 73.3263 33.125 75.0833 33.125Z" fill="#F8E79A"/>
</svg>
