<svg width="54" height="54" viewBox="0 0 54 54" fill="none" xmlns="http://www.w3.org/2000/svg">
<path d="M8.8875 42.75L4.6125 27.675C4.5 27.225 4.5465 26.7 4.752 26.1C4.959 25.5 5.4 25.0875 6.075 24.8625L9 23.85V13.5C9 12.2625 9.441 11.2035 10.323 10.323C11.2035 9.441 12.2625 9 13.5 9H20.25V4.5C20.25 3.8625 20.466 3.32775 20.898 2.89575C21.3285 2.46525 21.8625 2.25 22.5 2.25H31.5C32.1375 2.25 32.6723 2.46525 33.1042 2.89575C33.5347 3.32775 33.75 3.8625 33.75 4.5V9H40.5C41.7375 9 42.7972 9.441 43.6792 10.323C44.5597 11.2035 45 12.2625 45 13.5V23.85L47.925 24.8625C48.7125 25.1625 49.1812 25.6028 49.3312 26.1833C49.4812 26.7652 49.5 27.2625 49.3875 27.675L45.1125 42.75C43.7625 42.75 42.4973 42.5062 41.3168 42.0187C40.1348 41.5312 39.0562 40.9125 38.0812 40.1625C37.7812 39.9375 37.4535 39.759 37.098 39.627C36.741 39.4965 36.375 39.4312 36 39.4312C35.625 39.4312 35.259 39.4965 34.902 39.627C34.5465 39.759 34.2188 39.9375 33.9187 40.1625C32.9438 40.9125 31.875 41.5312 30.7125 42.0187C29.55 42.5062 28.3125 42.75 27 42.75C25.6875 42.75 24.45 42.5062 23.2875 42.0187C22.125 41.5312 21.0562 40.9125 20.0813 40.1625C19.7812 39.9375 19.4535 39.759 19.098 39.627C18.741 39.4965 18.375 39.4312 18 39.4312C17.625 39.4312 17.2598 39.4965 16.9043 39.627C16.5472 39.759 16.2188 39.9375 15.9187 40.1625C14.9437 40.9125 13.866 41.5312 12.6855 42.0187C11.5035 42.5062 10.2375 42.75 8.8875 42.75ZM6.75 51.75C6.1125 51.75 5.5785 51.534 5.148 51.102C4.716 50.6715 4.5 50.1375 4.5 49.5C4.5 48.8625 4.716 48.3285 5.148 47.898C5.5785 47.466 6.1125 47.25 6.75 47.25H9C10.3125 47.25 11.6062 47.0812 12.8812 46.7437C14.1562 46.4062 15.3938 45.9 16.5938 45.225C16.7812 45.1125 16.9965 45.0277 17.2395 44.9707C17.484 44.9152 17.7375 44.8875 18 44.8875C18.2625 44.8875 18.516 44.9152 18.7605 44.9707C19.0035 45.0277 19.2188 45.1125 19.4062 45.225C20.6063 45.8625 21.8438 46.3402 23.1187 46.6582C24.3937 46.9777 25.6875 47.1375 27 47.1375C28.3125 47.1375 29.6063 46.9777 30.8813 46.6582C32.1562 46.3402 33.3937 45.8625 34.5938 45.225C34.7812 45.1125 34.9972 45.0277 35.2418 44.9707C35.4848 44.9152 35.7375 44.8875 36 44.8875C36.2625 44.8875 36.5153 44.9152 36.7583 44.9707C37.0028 45.0277 37.2188 45.1125 37.4062 45.225C38.6063 45.9 39.8438 46.4062 41.1187 46.7437C42.3937 47.0812 43.6875 47.25 45 47.25H47.25C47.8875 47.25 48.4215 47.466 48.852 47.898C49.284 48.3285 49.5 48.8625 49.5 49.5C49.5 50.1375 49.284 50.6715 48.852 51.102C48.4215 51.534 47.8875 51.75 47.25 51.75H45C43.425 51.75 41.8875 51.5625 40.3875 51.1875C38.8875 50.8125 37.425 50.25 36 49.5C34.575 50.25 33.1035 50.8125 31.5855 51.1875C30.066 51.5625 28.5375 51.75 27 51.75C25.4625 51.75 23.9348 51.5625 22.4167 51.1875C20.8973 50.8125 19.425 50.25 18 49.5C16.575 50.25 15.1125 50.8125 13.6125 51.1875C12.1125 51.5625 10.575 51.75 9 51.75H6.75ZM13.5 22.3875L25.5938 18.45C26.0438 18.3 26.5125 18.225 27 18.225C27.4875 18.225 27.9562 18.3 28.4062 18.45L40.5 22.3875V13.5H13.5V22.3875Z" fill="#F8E79A"/>
</svg>
