<svg width="82" height="54" viewBox="0 0 82 54" fill="none" xmlns="http://www.w3.org/2000/svg">
<path d="M54.2078 10.7992C54.2078 10.0831 53.9222 9.39643 53.4139 8.89012C52.9056 8.38381 52.2162 8.09937 51.4974 8.09937H43.3662C42.6474 8.09937 41.958 8.38381 41.4497 8.89012C40.9414 9.39643 40.6559 10.0831 40.6559 10.7992V18.8985C40.6559 19.6146 40.9414 20.3013 41.4497 20.8076C41.958 21.3139 42.6474 21.5983 43.3662 21.5983H51.4974C52.2162 21.5983 52.9056 21.3139 53.4139 20.8076C53.9222 20.3013 54.2078 19.6146 54.2078 18.8985V10.7992Z" fill="#F8E79A"/>
<path d="M66.1334 3.23975C65.376 2.23384 64.3939 1.4174 63.2648 0.855074C62.1358 0.292752 60.8908 0 59.6285 0H8.13122C5.9747 0 3.90651 0.853324 2.38163 2.37225C0.856743 3.89118 6.86646e-05 5.95129 6.86646e-05 8.09938V40.4969C6.86646e-05 42.645 0.856743 44.7051 2.38163 46.224C3.90651 47.743 5.9747 48.5963 8.13122 48.5963H11.755C12.5239 50.213 13.7377 51.579 15.2553 52.5356C16.773 53.4922 18.532 54 20.3279 54C22.1239 54 23.8829 53.4922 25.4005 52.5356C26.9181 51.579 28.132 50.213 28.9009 48.5963H52.4107C53.1796 50.213 54.3935 51.579 55.9111 52.5356C57.4287 53.4922 59.1877 54 60.9837 54C62.7796 54 64.5386 53.4922 66.0563 52.5356C67.5739 51.579 68.7877 50.213 69.5566 48.5963H73.1804C75.3369 48.5963 77.4051 47.743 78.93 46.224C80.4549 44.7051 81.3115 42.645 81.3115 40.4969V27.897C81.3115 24.9762 80.3605 22.1342 78.6011 19.7976L66.1334 3.23975ZM59.6285 5.39959C60.0492 5.39959 60.4642 5.49717 60.8406 5.68461C61.2169 5.87205 61.5443 6.1442 61.7968 6.47951L63.0164 8.09938H62.3389C61.62 8.09938 60.9306 8.38383 60.4223 8.89013C59.914 9.39644 59.6285 10.0831 59.6285 10.7992V18.8986C59.6285 19.6146 59.914 20.3013 60.4223 20.8076C60.9306 21.3139 61.62 21.5984 62.3389 21.5984H73.1804L74.2645 23.0373C74.5627 23.4369 74.8229 23.8581 75.0424 24.2981H5.42084V21.5984H32.5247C33.2435 21.5984 33.9329 21.3139 34.4412 20.8076C34.9495 20.3013 35.235 19.6146 35.235 18.8986V10.7992C35.235 10.0831 34.9495 9.39644 34.4412 8.89013C33.9329 8.38383 33.2435 8.09938 32.5247 8.09938H5.42084C5.42084 7.38335 5.70639 6.69665 6.21468 6.19034C6.72298 5.68403 7.41238 5.39959 8.13122 5.39959H59.6285ZM75.8908 40.4969C75.8908 41.2129 75.6052 41.8997 75.0969 42.406C74.5886 42.9123 73.8992 43.1967 73.1804 43.1967H70.3751C70.0529 40.9443 68.9257 38.8833 67.2004 37.3923C65.4751 35.9013 63.2677 35.0804 60.9837 35.0804C58.6996 35.0804 56.4922 35.9013 54.7669 37.3923C53.0417 38.8833 51.9144 40.9443 51.5922 43.1967H29.7194C29.3931 40.9475 28.2641 38.8907 26.5393 37.4031C24.8145 35.9155 22.6094 35.0967 20.3279 35.0967C18.0464 35.0967 15.8413 35.9155 14.1166 37.4031C12.3918 38.8907 11.2628 40.9475 10.9365 43.1967H8.13122C7.41238 43.1967 6.72298 42.9123 6.21468 42.406C5.70639 41.8997 5.42084 41.2129 5.42084 40.4969V37.7971C6.13967 37.7971 6.82907 37.5127 7.33736 37.0064C7.84566 36.5001 8.13122 35.8134 8.13122 35.0973C8.13122 34.3813 7.84566 33.6946 7.33736 33.1883C6.82907 32.682 6.13967 32.3975 5.42084 32.3975V29.6977H75.8908V40.4969ZM56.9181 44.5466C56.9181 43.4726 57.3464 42.4425 58.1089 41.683C58.8713 40.9236 59.9054 40.4969 60.9837 40.4969C62.0619 40.4969 63.096 40.9236 63.8585 41.683C64.6209 42.4425 65.0492 43.4726 65.0492 44.5466C65.0492 45.6207 64.6209 46.6507 63.8585 47.4102C63.096 48.1696 62.0619 48.5963 60.9837 48.5963C59.9054 48.5963 58.8713 48.1696 58.1089 47.4102C57.3464 46.6507 56.9181 45.6207 56.9181 44.5466ZM16.2624 44.5466C16.2624 44.0148 16.3675 43.4882 16.5718 42.9969C16.7762 42.5055 17.0756 42.0591 17.4531 41.683C17.8307 41.307 18.2788 41.0087 18.7721 40.8052C19.2654 40.6017 19.794 40.4969 20.3279 40.4969C20.8618 40.4969 21.3905 40.6017 21.8838 40.8052C22.377 41.0087 22.8252 41.307 23.2027 41.683C23.5802 42.0591 23.8797 42.5055 24.084 42.9969C24.2883 43.4882 24.3935 44.0148 24.3935 44.5466C24.3935 45.6207 23.9652 46.6507 23.2027 47.4102C22.4403 48.1696 21.4062 48.5963 20.3279 48.5963C19.2497 48.5963 18.2156 48.1696 17.4531 47.4102C16.6907 46.6507 16.2624 45.6207 16.2624 44.5466Z" fill="#F8E79A"/>
</svg>
