<svg width="54" height="54" viewBox="0 0 54 54" fill="none" xmlns="http://www.w3.org/2000/svg">
<g clip-path="url(#clip0_82_21)">
<path d="M54 23.6254C54 24.5206 53.6444 25.379 53.0115 26.0119C52.3785 26.6449 51.5201 27.0004 50.625 27.0004V38.8129C50.625 41.5737 49.2986 44.0239 47.25 45.5629V52.3129C47.25 52.7605 47.0722 53.1897 46.7557 53.5062C46.4393 53.8227 46.0101 54.0005 45.5625 54.0005H38.8125C38.3649 54.0005 37.9357 53.8227 37.6193 53.5062C37.3028 53.1897 37.125 52.7605 37.125 52.3129V47.2504H16.875V52.3129C16.875 52.7605 16.6972 53.1897 16.3807 53.5062C16.0643 53.8227 15.6351 54.0005 15.1875 54.0005H8.4375C7.98995 54.0005 7.56073 53.8227 7.24426 53.5062C6.92779 53.1897 6.75 52.7605 6.75 52.3129V45.5629C5.70132 44.7777 4.85022 43.7588 4.26434 42.587C3.67846 41.4153 3.37395 40.123 3.375 38.8129V27.0004C2.47989 27.0004 1.62145 26.6449 0.988515 26.0119C0.355579 25.379 0 24.5206 0 23.6254V16.8754C0 15.9803 0.355579 15.1219 0.988515 14.489C1.62145 13.856 2.47989 13.5004 3.375 13.5004V8.91045C3.375 4.90095 6.22687 1.37745 10.341 0.904948C15.8724 0.288702 21.4344 -0.0132834 27 0.000447921C34.0875 0.000447921 39.798 0.459448 43.659 0.904948C47.7731 1.37745 50.625 4.90095 50.625 8.91045V13.5004C51.5201 13.5004 52.3785 13.856 53.0115 14.489C53.6444 15.1219 54 15.9803 54 16.8754V23.6254ZM11.988 10.8679C16.976 10.3631 21.9866 10.1153 27 10.1254C33.1999 10.1254 38.3164 10.4866 42.012 10.8679C42.4486 10.8987 42.88 10.7587 43.2153 10.4774C43.5506 10.1961 43.7634 9.7955 43.809 9.36022C43.8545 8.92495 43.7292 8.489 43.4594 8.14439C43.1896 7.79978 42.7965 7.57346 42.363 7.5132C37.2585 6.99554 32.1307 6.74095 27 6.75045C20.6685 6.75045 15.4373 7.11832 11.637 7.5132C11.4111 7.52912 11.1908 7.59032 10.9891 7.69317C10.7874 7.79602 10.6084 7.93842 10.4629 8.11187C10.3174 8.28532 10.2082 8.48629 10.142 8.7028C10.0757 8.91931 10.0537 9.14693 10.0773 9.37212C10.1009 9.59731 10.1695 9.81546 10.2791 10.0136C10.3887 10.2117 10.5371 10.3857 10.7154 10.5253C10.8937 10.6648 11.0982 10.7671 11.3169 10.826C11.5355 10.8849 11.7637 10.8991 11.988 10.8679ZM27 13.5004C20.6685 13.5004 15.4373 13.8683 11.637 14.2632C11.2223 14.3066 10.8383 14.502 10.5591 14.8117C10.2799 15.1214 10.1252 15.5236 10.125 15.9406V27.9353C10.1252 28.3523 10.2799 28.7545 10.5591 29.0642C10.8383 29.3739 11.2223 29.5693 11.637 29.6127C15.4373 30.0076 20.6685 30.3754 27 30.3754C33.3315 30.3754 38.5628 30.0076 42.363 29.6127C42.7777 29.5693 43.1617 29.3739 43.4409 29.0642C43.7201 28.7545 43.8748 28.3523 43.875 27.9353V15.9406C43.8748 15.5236 43.7201 15.1214 43.4409 14.8117C43.1617 14.502 42.7777 14.3066 42.363 14.2632C37.2585 13.7455 32.1307 13.491 27 13.5004ZM16.875 37.1254C16.875 36.2303 16.5194 35.3719 15.8865 34.739C15.2535 34.106 14.3951 33.7504 13.5 33.7504C12.6049 33.7504 11.7464 34.106 11.1135 34.739C10.4806 35.3719 10.125 36.2303 10.125 37.1254C10.125 38.0206 10.4806 38.879 11.1135 39.5119C11.7464 40.1449 12.6049 40.5004 13.5 40.5004C14.3951 40.5004 15.2535 40.1449 15.8865 39.5119C16.5194 38.879 16.875 38.0206 16.875 37.1254ZM43.875 37.1254C43.875 36.2303 43.5194 35.3719 42.8865 34.739C42.2535 34.106 41.3951 33.7504 40.5 33.7504C39.6049 33.7504 38.7465 34.106 38.1135 34.739C37.4806 35.3719 37.125 36.2303 37.125 37.1254C37.125 38.0206 37.4806 38.879 38.1135 39.5119C38.7465 40.1449 39.6049 40.5004 40.5 40.5004C41.3951 40.5004 42.2535 40.1449 42.8865 39.5119C43.5194 38.879 43.875 38.0206 43.875 37.1254ZM20.25 37.1254C20.25 38.0206 20.6056 38.879 21.2385 39.5119C21.8715 40.1449 22.7299 40.5004 23.625 40.5004H30.375C31.2701 40.5004 32.1285 40.1449 32.7615 39.5119C33.3944 38.879 33.75 38.0206 33.75 37.1254C33.75 36.2303 33.3944 35.3719 32.7615 34.739C32.1285 34.106 31.2701 33.7504 30.375 33.7504H23.625C22.7299 33.7504 21.8715 34.106 21.2385 34.739C20.6056 35.3719 20.25 36.2303 20.25 37.1254Z" fill="#F8E79A"/>
</g>
<defs>
<clipPath id="clip0_82_21">
<rect width="54" height="54" fill="white"/>
</clipPath>
</defs>
</svg>
