<svg width="78" height="54" viewBox="0 0 78 54" fill="none" xmlns="http://www.w3.org/2000/svg">
<path d="M3.85714 7.71429C3.85714 3.45938 7.31652 0 11.5714 0H38.5714C41.4281 0 43.9232 1.55491 45.2491 3.85714H51.4929C54.5424 3.85714 57.3027 5.65313 58.5442 8.4375L64.9085 22.7571C64.9688 22.8897 65.017 23.0103 65.0652 23.1429H65.5714C69.8263 23.1429 73.2857 26.6022 73.2857 30.8571V34.7143C75.4192 34.7143 77.1429 36.4379 77.1429 38.5714C77.1429 40.7049 75.4192 42.4286 73.2857 42.4286H69.4286C69.4286 48.817 64.2455 54 57.8571 54C51.4688 54 46.2857 48.817 46.2857 42.4286H30.8571C30.8571 48.817 25.6741 54 19.2857 54C12.8973 54 7.71429 48.817 7.71429 42.4286H3.85714C1.72366 42.4286 0 40.7049 0 38.5714C0 36.4379 1.72366 34.7143 3.85714 34.7143V30.8571C1.72366 30.8571 0 29.1335 0 27V15.4286C0 13.2951 1.72366 11.5714 3.85714 11.5714V7.71429ZM46.2857 23.1429H56.6397L51.4929 11.5714H46.2857V23.1429ZM19.2857 48.2143C22.4799 48.2143 25.0714 45.6228 25.0714 42.4286C25.0714 39.2344 22.4799 36.6429 19.2857 36.6429C16.0915 36.6429 13.5 39.2344 13.5 42.4286C13.5 45.6228 16.0915 48.2143 19.2857 48.2143ZM63.6429 42.4286C63.6429 39.2344 61.0513 36.6429 57.8571 36.6429C54.6629 36.6429 52.0714 39.2344 52.0714 42.4286C52.0714 45.6228 54.6629 48.2143 57.8571 48.2143C61.0513 48.2143 63.6429 45.6228 63.6429 42.4286Z" fill="#F8E79A"/>
</svg>
